<svg id="logo" data-name="Layer 1" viewBox="0 0 1679.53 326.09">
    <defs>
        <linearGradient id="New_Gradient_Swatch_3" data-name="New Gradient Swatch 3" x1="-33.46" y1="80.11" x2="1686" y2="-217.75" gradientUnits="userSpaceOnUse">
            <stop offset="0" stop-color="#f8ca12" />
            <stop offset=".19" stop-color="#fe8b20" />
            <stop offset=".39" stop-color="#f76475" />
            <stop offset=".59" stop-color="#a35297" />
            <stop offset=".8" stop-color="#49afc1" />
            <stop offset="1" stop-color="#41dc63" />
        </linearGradient>
        <linearGradient id="New_Gradient_Swatch_3-2" data-name="New Gradient Swatch 3" x1="-30.21" y1="98.89" x2="1689.26" y2="-198.97" xlink:href="#New_Gradient_Swatch_3" />
        <linearGradient id="New_Gradient_Swatch_3-3" data-name="New Gradient Swatch 3" x1="-24.7" y1="130.71" x2="1694.77" y2="-167.15" xlink:href="#New_Gradient_Swatch_3" />
        <linearGradient id="New_Gradient_Swatch_3-4" data-name="New Gradient Swatch 3" x1="-22.49" y1="143.46" x2="1696.98" y2="-154.4" xlink:href="#New_Gradient_Swatch_3" />
        <linearGradient id="New_Gradient_Swatch_3-5" data-name="New Gradient Swatch 3" x1="-20.14" y1="156.99" x2="1699.32" y2="-140.87" xlink:href="#New_Gradient_Swatch_3" />
        <linearGradient id="New_Gradient_Swatch_3-6" data-name="New Gradient Swatch 3" x1="-16.77" y1="176.45" x2="1702.69" y2="-121.41" xlink:href="#New_Gradient_Swatch_3" />
        <linearGradient id="New_Gradient_Swatch_3-7" data-name="New Gradient Swatch 3" x1="-11.2" y1="208.6" x2="1708.26" y2="-89.26" xlink:href="#New_Gradient_Swatch_3" />
        <linearGradient id="New_Gradient_Swatch_3-8" data-name="New Gradient Swatch 3" x1="-11.23" y1="208.47" x2="1708.24" y2="-89.39" xlink:href="#New_Gradient_Swatch_3" />
        <linearGradient id="New_Gradient_Swatch_3-9" data-name="New Gradient Swatch 3" x1="-8.89" y1="221.93" x2="1710.57" y2="-75.92" xlink:href="#New_Gradient_Swatch_3" />
        <linearGradient id="New_Gradient_Swatch_3-10" data-name="New Gradient Swatch 3" x1="-6.56" y1="235.42" x2="1712.91" y2="-62.44" xlink:href="#New_Gradient_Swatch_3" />
        <linearGradient id="New_Gradient_Swatch_3-11" data-name="New Gradient Swatch 3" x1="-4.98" y1="244.5" x2="1714.48" y2="-53.36" xlink:href="#New_Gradient_Swatch_3" />
        <linearGradient id="New_Gradient_Swatch_3-12" data-name="New Gradient Swatch 3" x1="-4.77" y1="245.72" x2="1714.69" y2="-52.14" xlink:href="#New_Gradient_Swatch_3" />
        <linearGradient id="New_Gradient_Swatch_3-13" data-name="New Gradient Swatch 3" x1=".85" y1="278.2" x2="1720.32" y2="-19.66" xlink:href="#New_Gradient_Swatch_3" />
        <linearGradient id="New_Gradient_Swatch_3-14" data-name="New Gradient Swatch 3" x1="4.28" y1="297.99" x2="1723.75" y2=".13" xlink:href="#New_Gradient_Swatch_3" />
        <linearGradient id="New_Gradient_Swatch_3-15" data-name="New Gradient Swatch 3" x1="2.56" y1="288.06" x2="1722.03" y2="-9.8" xlink:href="#New_Gradient_Swatch_3" />
        <linearGradient id="New_Gradient_Swatch_3-16" data-name="New Gradient Swatch 3" x1="6.04" y1="308.13" x2="1725.5" y2="10.27" xlink:href="#New_Gradient_Swatch_3" />
        <linearGradient id="New_Gradient_Swatch_3-17" data-name="New Gradient Swatch 3" x1="10.41" y1="333.39" x2="1729.88" y2="35.53" xlink:href="#New_Gradient_Swatch_3" />
        <linearGradient id="New_Gradient_Swatch_3-18" data-name="New Gradient Swatch 3" x1="9.13" y1="326" x2="1728.6" y2="28.14" xlink:href="#New_Gradient_Swatch_3" />
        <linearGradient id="New_Gradient_Swatch_3-19" data-name="New Gradient Swatch 3" x1="14.73" y1="358.32" x2="1734.2" y2="60.46" xlink:href="#New_Gradient_Swatch_3" />
        <linearGradient id="New_Gradient_Swatch_3-20" data-name="New Gradient Swatch 3" x1="20.58" y1="392.06" x2="1740.04" y2="94.2" xlink:href="#New_Gradient_Swatch_3" />
        <linearGradient id="New_Gradient_Swatch_3-21" data-name="New Gradient Swatch 3" x1="4.99" y1="302.06" x2="1724.45" y2="4.2" xlink:href="#New_Gradient_Swatch_3" />
        <linearGradient id="New_Gradient_Swatch_3-22" data-name="New Gradient Swatch 3" x1="10.06" y1="331.35" x2="1729.53" y2="33.49" xlink:href="#New_Gradient_Swatch_3" />
        <linearGradient id="New_Gradient_Swatch_3-23" data-name="New Gradient Swatch 3" x1="9.83" y1="330" x2="1729.29" y2="32.14" xlink:href="#New_Gradient_Swatch_3" />
        <linearGradient id="New_Gradient_Swatch_3-24" data-name="New Gradient Swatch 3" x1="12.76" y1="346.92" x2="1732.22" y2="49.06" xlink:href="#New_Gradient_Swatch_3" />
        <linearGradient id="New_Gradient_Swatch_3-25" data-name="New Gradient Swatch 3" x1="17.97" y1="377" x2="1737.43" y2="79.14" xlink:href="#New_Gradient_Swatch_3" />
        <linearGradient id="New_Gradient_Swatch_3-26" data-name="New Gradient Swatch 3" x1="18.1" y1="377.77" x2="1737.57" y2="79.91" xlink:href="#New_Gradient_Swatch_3" />
        <linearGradient id="New_Gradient_Swatch_3-27" data-name="New Gradient Swatch 3" x1="19.37" y1="385.11" x2="1738.84" y2="87.25" xlink:href="#New_Gradient_Swatch_3" />
        <linearGradient id="New_Gradient_Swatch_3-28" data-name="New Gradient Swatch 3" x1="22.61" y1="403.76" x2="1742.07" y2="105.9" xlink:href="#New_Gradient_Swatch_3" />
        <linearGradient id="New_Gradient_Swatch_3-29" data-name="New Gradient Swatch 3" x1="25.63" y1="421.22" x2="1745.09" y2="123.36" xlink:href="#New_Gradient_Swatch_3" />
        <linearGradient id="New_Gradient_Swatch_3-30" data-name="New Gradient Swatch 3" x1="26.11" y1="423.98" x2="1745.57" y2="126.12" xlink:href="#New_Gradient_Swatch_3" />
        <linearGradient id="New_Gradient_Swatch_3-31" data-name="New Gradient Swatch 3" x1="27.7" y1="433.16" x2="1747.16" y2="135.3" xlink:href="#New_Gradient_Swatch_3" />
        <linearGradient id="New_Gradient_Swatch_3-32" data-name="New Gradient Swatch 3" x1="34.96" y1="475.09" x2="1754.43" y2="177.23" xlink:href="#New_Gradient_Swatch_3" />
        <linearGradient id="New_Gradient_Swatch_3-33" data-name="New Gradient Swatch 3" x1="34.23" y1="470.86" x2="1753.69" y2="173" xlink:href="#New_Gradient_Swatch_3" />
        <linearGradient id="New_Gradient_Swatch_3-34" data-name="New Gradient Swatch 3" x1="33.95" y1="469.25" x2="1753.41" y2="171.39" xlink:href="#New_Gradient_Swatch_3" />
        <linearGradient id="New_Gradient_Swatch_3-35" data-name="New Gradient Swatch 3" x1="42.1" y1="516.31" x2="1761.57" y2="218.45" xlink:href="#New_Gradient_Swatch_3" />
    </defs>
    <path class="cls-20" style="--i: 1" d="M78,35.7c-6.75,12.45-9.75,27.15-9.75,39.3,0,20.55,10.05,34.05,31.5,34.05,15.9,0,31.2-7.65,42.15-25.65l4.5,2.85c-10.95,17.7-28.05,27.75-46.95,27.75-24.15,0-41.1-17.55-41.1-43.65,0-14.1,4.5-28.05,12.3-39.45-12.15-7.8-23.85-14.55-37.35-14.55-18.45,0-27.6,12.15-27.6,24.3,0,13.2,9.3,17.85,17.85,17.85,5.55,0,8.25-2.85,9.15-7.05,1.2-6,3.3-10.65,8.85-10.65,3.75,0,6.45,2.7,6.45,6.9,0,6.9-8.55,16.5-22.35,16.5-12.75,0-25.65-6.6-25.65-23.25C0,21.75,17.55,11.4,33.3,11.4s28.35,6.9,40.8,14.85c10.95-13.05,26.55-21.75,45.3-21.75,23.55,0,37.5,12.3,37.5,26.4s-11.4,24-27.75,24c-20.55,0-36.3-9.6-51.15-19.2Zm3-5.1c14.85,9.75,29.7,19.35,48.15,19.35,14.85,0,21.9-9.3,21.9-18.6,0-12.45-12.75-21.9-31.65-21.9-17.7,0-30.15,9-38.4,21.15Z" />
    <path class="cls-19" d="M213.45,61.5c2.4-9.6-1.35-13.8-9.15-13.8s-16.35,2.85-24.3,7.35l-11.25,45.9c-1.5,5.85,0,7.65,8.7,8.4l-.6,2.4h-30.3l.6-2.4c9-.75,11.55-2.55,13.05-8.4l19.35-78.45c.9-3.75-.15-5.1-3.75-5.1h-5.85l.3-1.65,19.5-11.25h2.85l-11.25,45.45c6.6-3.45,16.8-7.35,25.2-7.35,7.8,0,19.5,3.3,15.6,18.75l-9.75,39.6c-1.5,5.85,0,7.65,8.7,8.4l-.6,2.4h-19.35l12.3-50.25Z" />
    <path class="cls-21" d="M258.15,114c-15,0-24.3-11.85-24.3-26.7,0-22.2,13.5-44.7,37.95-44.7,9.45,0,18.15,4.8,21.75,12.3l8.4-12.3h3l-13.8,55.8c-1.5,6.45-1.05,9.6,2.7,9.6,1.65,0,3.75-.6,6.6-1.95l-1.05,4.2c-3.15,1.95-6.3,3-8.7,3-6.75,0-9.75-4.5-8.7-12.15-5.7,7.5-13.65,12.9-23.85,12.9Zm33.45-51.75c-2.25-10.5-11.4-15.3-18.9-15.3-21.45,0-29.7,26.7-29.7,42.45,0,13.5,6.75,20.25,16.2,20.25,11.4,0,20.1-10.35,25.8-21l6.6-26.4Z" />
    <path class="cls-16" d="M373.2,61.5c2.55-9.6-1.35-13.8-9.15-13.8s-16.35,2.85-24.3,7.35l-11.25,45.9c-1.5,5.85,0,7.65,8.7,8.4l-.6,2.4h-30.3l.6-2.4c9-.75,11.55-2.55,13.05-8.4l10.05-40.35c.75-3.75-.3-5.1-3.9-5.1h-5.85l.3-1.65,19.5-11.25h2.85l-1.8,7.35c6.6-3.45,16.8-7.35,25.2-7.35,7.8,0,19.5,3.3,15.6,18.75l-9.75,39.6c-1.5,5.85,0,7.65,8.7,8.4l-.6,2.4h-19.35l12.3-50.25Z" />
    <path class="cls-29" d="M442.2,43.8c10.5-22.05,26.25-35.1,43.2-35.1,6.6,0,17.1,2.55,17.1,9.75,0,3.75-2.7,6.9-6.75,6.9-7.2,0-4.95-11.55-14.25-11.55-12.9,0-27.45,15.6-34.35,32.1,7.35,3.9,11.55,11.1,11.55,18.9,0,17.25-12.75,31.65-31.2,31.65-10.65,0-10.05-3.45-20.85-3.45-7.95,0-11.55,3.45-11.55,7.05,0,5.55,4.95,6.45,25.65,7.05,22.65,.6,28.95,5.4,28.95,15.15,0,10.65-12.15,19.35-33.6,19.35s-32.4-3.15-32.4-14.7c0-6.9,5.55-12,12.3-14.55-5.55-2.4-7.65-6.3-7.65-11.25,0-8.1,8.7-12.9,19.05-12.9-3.3-3.9-4.95-8.7-4.95-13.95,0-17.25,12.75-31.65,31.2-31.65,3.15,0,5.85,.45,8.55,1.2Zm-51.75,82.05c0,8.4,10.95,11.4,26.25,11.4,17.25,0,24.6-6,24.6-12.15s-5.4-8.7-21.6-9c-7.5-.15-13.35-.75-17.85-1.8-8.55,2.25-11.4,6.3-11.4,11.55Zm58.8-63.3c0-10.95-6-15.6-15.9-15.6-14.55,0-21.6,15.9-21.6,29.7,0,10.65,6.15,15.45,16.05,15.45,14.4,0,21.45-15.75,21.45-29.55Zm14.55,46.8c9-.75,11.55-2.55,13.05-8.4l10.05-40.35c.75-3.6,0-5.1-3.9-5.1h-5.85l.3-1.65,19.5-11.25h2.85l-14.4,58.35c-1.65,6.45,1.2,7.8,8.7,8.4l-.6,2.4h-30.3l.6-2.4Z" />
    <path class="cls-31" d="M569.4,61.5c2.55-9.6-1.35-13.8-9.15-13.8s-16.35,2.85-24.3,7.35l-11.25,45.9c-1.5,5.85,0,7.65,8.7,8.4l-.6,2.4h-30.3l.6-2.4c9-.75,11.55-2.55,13.05-8.4l10.05-40.35c.75-3.75-.3-5.1-3.9-5.1h-5.85l.3-1.65,19.5-11.25h2.85l-1.8,7.35c6.6-3.45,16.8-7.35,25.2-7.35,7.8,0,19.5,3.3,15.6,18.75l-9.75,39.6c-1.5,5.85,0,7.65,8.7,8.4l-.6,2.4h-19.35l12.3-50.25Z" />
    <path class="cls-22" d="M676.49,135.29c0,8.25-12.6,13.95-25.2,13.95-11.1,0-18.6-5.55-26.25-10.95-7.2,4.5-15.75,6.45-25.05,6.45-11.25,0-18.15-3.3-18.15-9.75,0-7.8,9.15-11.1,18.9-11.1s17.1,4.2,23.85,8.7c3.75-3.3,6.45-8.1,8.1-14.4l4.2-16.8c-5.7,7.35-13.5,12.6-23.7,12.6-15,0-24.3-11.85-24.3-26.7,0-22.2,13.5-44.7,37.95-44.7,9.45,0,18.15,4.8,21.75,12.3l8.25-12.3h3.15l-17.4,70.35c-2.55,10.05-7.35,17.55-13.8,22.65,6.9,4.8,13.8,9.3,22.95,9.3,6.9,0,9.45-3.6,11.25-7.2,2.55-5.25,4.05-7.8,8.1-7.8,3.45,0,5.4,2.4,5.4,5.4Zm-55.5,.15c-5.85-3.9-12.15-7.2-20.25-7.2-5.85,0-14.55,2.25-14.55,6.75s9.3,5.4,13.8,5.4c8.1,0,15.3-1.35,21-4.95Zm19.05-46.95l6.6-26.25c-2.25-10.5-11.4-15.3-18.9-15.3-21.45,0-29.7,26.7-29.7,42.45,0,13.5,6.75,20.25,16.2,20.25,11.4,0,20.25-10.35,25.8-21.15Z" />
    <path class="cls-9" d="M766.79,61.5c2.4-9.6-1.35-13.8-9.15-13.8s-16.35,2.85-24.3,7.35l-11.25,45.9c-1.5,5.85,0,7.65,8.7,8.4l-.6,2.4h-30.3l.6-2.4c9-.75,11.7-2.55,13.05-8.4l19.35-78.45c.9-3.75-.15-5.1-3.75-5.1h-5.85l.3-1.65,19.5-11.25h2.85l-11.25,45.45c6.6-3.45,16.8-7.35,25.2-7.35,7.8,0,19.35,3.3,15.6,18.75l-15,61.2c-3,12.15,0,19.35,8.25,19.35,6.75,0,9.3-4.65,11.55-8.85,1.8-3.45,3.3-6.6,7.05-6.6,2.55,0,4.35,1.65,4.35,4.5,0,7.65-8.85,15.15-22.95,15.15s-20.1-9.9-16.65-23.85l14.7-60.75Z" />
    <path class="cls-1" style="--i: 1" d="M824.69,42.6c11.85,0,24.9,5.85,24.9,21l-53.25,16.65c-.3,2.55-.3,4.35-.3,6.3,0,12.45,5.55,23.1,21.3,23.1,11.55,0,18.3-6.6,18.3-10.95,0-3-1.8-4.65-1.8-7.35,0-4.5,3.6-7.2,6.75-7.2,4.2,0,5.55,3.15,5.55,5.7,0,10.5-12.15,24.15-29.85,24.15-19.05,0-29.7-13.05-29.7-29.55,0-26.25,18-41.85,38.1-41.85Zm16.65,18.9c0-10.65-6.9-14.55-16.5-14.55-17.85,0-25.35,14.85-27.9,28.5l44.4-13.95Z" />
    <path class="cls-27" d="M880.79,114c-15,0-24.3-11.85-24.3-26.7,0-22.2,13.5-44.7,37.95-44.7,9.45,0,18.15,4.8,21.75,12.3l8.4-12.3h3l-13.8,55.8c-1.5,6.45-1.05,9.6,2.7,9.6,1.65,0,3.75-.6,6.6-1.95l-1.05,4.2c-3.15,1.95-6.3,3-8.7,3-6.75,0-9.75-4.5-8.7-12.15-5.7,7.5-13.65,12.9-23.85,12.9Zm33.45-51.75c-2.25-10.5-11.4-15.3-18.9-15.3-21.45,0-29.7,26.7-29.7,42.45,0,13.5,6.75,20.25,16.2,20.25,11.4,0,20.1-10.35,25.8-21l6.6-26.4Z" />
    <path class="cls-18" d="M929.54,109.35c9-.75,11.55-2.55,13.05-8.4l10.05-40.35c.9-3.75-.3-5.1-3.9-5.1h-5.85l.3-1.65,19.5-11.25h2.85l-2.7,10.65c6.9-7.05,15.75-10.65,22.65-10.65,7.35,0,9.45,3.6,9.45,6.9,0,3.9-2.25,6.3-6.45,6.3-5.1,0-6-6.3-10.8-6.3-4.5,0-11.4,3.45-16.5,10.8l-10.05,40.65c-1.5,5.85,0,7.65,8.7,8.4l-.6,2.4h-30.3l.6-2.4Z" />
    <path class="cls-6" d="M1013.24,113.25c-7.8,0-14.25-3.15-10.8-16.8l11.7-47.25h-10.95l.45-1.65c12.45-4.05,17.55-11.85,22.5-24.6h3l-5.55,21.9h18.6l-1.05,4.35h-18.6l-12,48c-1.8,7.05-.3,10.8,6.3,10.8,3.6,0,6.45-.6,10.2-1.95l-1.05,4.2c-3.45,1.65-9,3-12.75,3Z" />
    <path class="cls-33" d="M1071.44,109.65c9.9,0,19.8-3.9,19.8-15,0-9.3-9.9-12.15-20.1-14.55-10.8-2.55-22.05-6.15-22.05-17.55s10.05-19.95,25.2-19.95c8.55,0,14.85,2.4,19.65,6.3l2.1-4.05h2.85l1.95,20.7-2.55,.45c-4.35-14.4-13.35-19.05-24.6-19.05s-16.95,5.55-16.95,12.3c0,7.5,8.1,10.2,17.1,12.6,11.55,3,24.75,6.6,24.75,20.1,0,14.4-12.3,22.05-27.75,22.05-9.3,0-19.65-3.75-24.45-10.05,.3,3.9,.45,7.8,.45,11.25,0,23.1-13.35,36.75-29.7,36.75s-23.1-9.9-22.2-19.65c.45-4.95,3.15-8.7,7.8-8.85,3-.15,6.3,2.1,6.3,5.7,0,4.5-4.05,5.25-4.05,9.9,0,3.45,3.3,8.55,12.15,8.55,14.1,0,25.2-11.55,25.2-32.4,0-7.35-.9-15.6-3.15-25.05l3.15-.9c7.5,15,16.65,20.4,29.1,20.4Z" />
    <path class="cls-17" d="M1120.19,105.45c0,4.65-3.45,7.5-7.2,7.5s-6.9-2.55-6.9-6.9,3.45-7.2,7.35-7.2c3.6,0,6.75,2.55,6.75,6.6Z" />
    <path class="cls-32" d="M1348.18,109.35c13.5-.75,16.35-1.5,19.5-14.4l20.25-82.5-71.85,99.3h-6.6l18.45-100.05-65.7,91.8c-16.95,23.85-37.8,37.65-62.55,37.65-26.85,0-41.25-15.45-41.25-33.45,0-23.1,18.9-34.5,33.9-34.5,7.05,0,12.6,3.3,12.6,8.85,0,4.5-3.15,7.65-7.8,7.65-3.9,0-6-1.8-7.95-3.6-1.8-1.65-3.6-3.15-6.75-3.15-8.7,0-18.3,8.25-18.3,24.6s12.45,28.65,35.7,28.65c22.05,0,41.55-12.15,58.8-36.15l57-79.5c4.8-6.75,2.55-8.85-4.65-8.85h-45.75c-24.75,0-40.65,12.15-40.65,31.35,0,11.55,6.15,20.1,16.8,20.1,6.3,0,10.35-1.95,10.35-6.6,0-3.15-2.55-5.85-2.55-9.45,0-4.05,3-6.75,6.75-6.75,4.65,0,7.8,3.75,7.8,8.55,0,10.8-9.3,19.2-22.35,19.2-14.1,0-22.65-10.05-22.65-25.05,0-18.6,14.1-36.3,46.5-36.3h72.45l-16.05,88.8L1386.13,6.75h28.2l-.6,2.4c-13.35,.75-15.9,1.5-19.05,14.4l-17.7,71.4c-3.15,12.9-1.05,13.65,12,14.4l-.6,2.4h-40.8l.6-2.4Z" />
    <path class="cls-15" d="M1397.84,109.35c9-.75,11.55-2.55,13.05-8.4l10.05-40.35c.75-3.75-.3-5.1-3.9-5.1h-5.85l.3-1.65,19.5-11.25h2.85l-14.4,58.35c-1.5,5.85,0,7.65,8.7,8.4l-.6,2.4h-30.3l.6-2.4Zm44.7-92.25c0,3.6-3,6.6-6.9,6.6-3.6,0-6.3-2.7-6.3-6.3s3-6.75,6.75-6.75,6.45,2.7,6.45,6.45Z" />
    <path class="cls-28" d="M1502.53,61.5c2.55-9.6-1.35-13.8-9.15-13.8s-16.35,2.85-24.3,7.35l-11.25,45.9c-1.5,5.85,0,7.65,8.7,8.4l-.6,2.4h-30.3l.6-2.4c9-.75,11.55-2.55,13.05-8.4l10.05-40.35c.75-3.75-.3-5.1-3.9-5.1h-5.85l.3-1.65,19.5-11.25h2.85l-1.8,7.35c6.6-3.45,16.8-7.35,25.2-7.35,7.8,0,19.5,3.3,15.6,18.75l-9.75,39.6c-1.5,5.85,0,7.65,8.7,8.4l-.6,2.4h-19.35l12.3-50.25Z" />
    <path class="cls-24" d="M1623.58,13.95c0,8.1-7.8,11.4-15.3,11.4-3.9,0-7.35-.75-10.8-2.1-.75,2.25-1.5,4.8-2.25,7.65l-17.4,70.05c-1.5,5.85,0,7.65,8.7,8.4l-.6,2.4c-6.15,0-13.35,.75-19.95,2.25l3-12.3c-5.7,7.2-13.35,12.3-23.4,12.3-15,0-24.3-11.85-24.3-26.7,0-22.2,13.5-44.7,37.95-44.7,9.3,0,17.85,4.65,21.45,11.85l4.5-18c1.65-6.45,3.6-11.7,5.85-16.2-2.7-1.5-5.4-3.15-8.1-4.95-8.4-5.4-17.1-10.95-28.65-10.95-6.75,0-9.3,4.65-11.55,8.85-1.8,3.45-3.45,6.45-7.05,6.45-2.55,0-4.35-1.65-4.35-4.8,0-7.35,8.85-14.85,22.95-14.85,13.05,0,22.8,6.15,31.65,11.85,2.55,1.65,4.95,3.15,7.5,4.5,5.4-8.25,12-11.85,18.6-11.85s11.55,3.9,11.55,9.45Zm-44.7,47.85c-2.25-10.2-11.4-14.85-18.75-14.85-21.45,0-29.7,26.7-29.7,42.45,0,13.5,6.75,20.25,16.2,20.25,11.1,0,19.95-9.9,25.5-20.55l6.75-27.3Zm40.35-47.85c0-3.15-2.55-5.1-7.2-5.1-5.1,0-9.3,2.7-12.9,10.35,3,1.05,6,1.8,9.15,1.8,6.3,0,10.95-2.25,10.95-7.05Z" />
    <path class="cls-10" d="M1657.03,91.95c0,14.4-12.3,22.05-27.75,22.05-9.3,0-17.1-3.3-22.95-7.8l-2.7,5.55h-2.85l-2.7-24.45,2.7-.45c5.85,17.25,16.65,22.8,29.1,22.8,9.9,0,19.8-3.9,19.8-15,0-8.7-8.85-11.55-18.45-14.1-15.15-4.2-23.7-7.2-23.7-18,0-11.7,10.05-19.95,25.2-19.95,8.55,0,14.85,2.4,19.65,6.3l2.1-4.05h2.85l1.95,20.7-2.55,.45c-4.35-14.4-13.35-19.05-24.6-19.05s-16.95,5.55-16.95,12.3c0,7.5,8.1,10.05,17.25,12.6,11.55,3.3,24.6,7.05,24.6,20.1Z" />
    <path class="cls-11" d="M1679.53,105.45c0,4.65-3.45,7.5-7.2,7.5s-6.9-2.55-6.9-6.9,3.45-7.2,7.35-7.2c3.6,0,6.75,2.55,6.75,6.6Z" />
    <path class="cls-14" d="M381,289.35l-.6,2.4h-34.65l.6-2.4c12.6-.75,15.9-3.3,15.3-9.3l-3.45-25.05c-3.75,4.05-10.05,7.05-17.7,7.05-7.05,0-14.55-4.5-22.2-7.5l-15.9,25.5c-3.3,5.1-1.05,8.55,11.7,9.3l-.6,2.4h-33.6l.6-2.4c8.4-.75,13.2-4.65,16.8-10.65l16.05-25.8c-2.1-.6-4.35-.9-6.6-.9-6.3,0-10.95,1.8-17.7,6.75l-1.95-2.4c6.3-6.45,15.15-10.8,25.2-10.8,1.8,0,3.6,.3,5.25,.6l37.2-59.4h3.6l11.85,91.05c.9,6.9,3.15,10.8,10.8,11.55Zm-23.1-37.05l-6.9-50.55-28.65,46.05c7.2,2.85,13.95,7.5,23.25,7.5,4.35,0,8.55-1.05,12.3-3Z" />
    <path class="cls-12" d="M451.35,241.5c2.55-9.6-1.35-13.8-9.15-13.8s-16.35,2.85-24.3,7.35l-11.25,45.9c-1.5,5.85,0,7.65,8.7,8.4l-.6,2.4h-30.3l.6-2.4c9-.75,11.55-2.55,13.05-8.4l10.05-40.35c.75-3.75-.3-5.1-3.9-5.1h-5.85l.3-1.65,19.5-11.25h2.85l-1.8,7.35c6.6-3.45,16.8-7.35,25.2-7.35,7.8,0,19.5,3.3,15.6,18.75l-9.75,39.6c-1.5,5.85,0,7.65,8.7,8.4l-.6,2.4h-19.35l12.3-50.25Z" />
    <path class="cls-7" d="M546.59,184.5h3l-23.85,96.45c-1.5,5.85,0,7.65,8.7,8.4l-.6,2.4c-6.15,0-13.2,.75-19.95,2.25l3-12.3c-5.7,7.2-13.35,12.3-23.4,12.3-15,0-24.3-11.85-24.3-26.7,0-22.2,13.5-44.7,37.95-44.7,9.3,0,17.85,4.65,21.45,11.85l7.95-31.95c1.05-3.75-.15-5.1-3.9-5.1h-5.7l.3-1.65,19.35-11.25Zm-19.8,57.3c-2.25-10.2-11.4-14.85-18.75-14.85-21.45,0-29.7,26.7-29.7,42.45,0,13.5,6.75,20.25,16.2,20.25,11.1,0,19.8-9.9,25.5-20.4l6.75-27.45Z" />
    <path class="cls-2" style="--i: 2" d="M660.89,182.1c14.55,0,24.6,5.85,24.6,13.35,0,4.5-2.7,6.6-5.25,6.6-4.2,0-5.7-3.3-7.2-6.9-1.8-3.9-4.05-8.1-12.15-8.1-21.9,0-39.15,15.9-46.8,45.6,5.55-6,12.6-10.05,21.6-10.05,15,0,24.3,11.85,24.3,26.7,0,22.2-13.5,44.7-37.95,44.7-8.85,0-16.95-4.05-21-10.5l-7.05,10.5h-3.6l13.65-54.9c9-36.15,32.4-57,56.85-57Zm-57.9,95.25c3.15,8.4,11.4,12.3,18.15,12.3,21.45,0,29.7-26.7,29.7-42.45,0-13.5-6.75-20.25-16.2-20.25s-17.55,7.65-23.1,16.5l-8.55,33.9Z" />
    <path class="cls-34" d="M737.69,252.9c0,22.2-15.9,41.1-39.45,41.1-17.7,0-29.55-12.75-29.55-30.3,0-22.2,15.9-41.1,39.45-41.1,17.7,0,29.55,12.75,29.55,30.3Zm-9.3-3.45c0-13.35-6.75-22.5-21.15-22.5-20.85,0-29.25,23.1-29.25,40.2,0,13.35,6.75,22.5,21.15,22.5,21,0,29.25-23.1,29.25-40.2Z" />
    <path class="cls-35" d="M759.29,293.25c-7.8,0-14.25-3.15-10.8-16.8l11.7-47.25h-10.95l.45-1.65c12.45-4.05,17.55-11.85,22.5-24.6h3l-5.55,21.9h18.6l-1.05,4.35h-18.6l-12,48c-1.8,7.05-.3,10.8,6.3,10.8,3.6,0,6.45-.6,10.2-1.95l-1.05,4.2c-3.45,1.65-9,3-12.75,3Z" />
    <path class="cls-5" d="M802.94,293.25c-7.8,0-14.25-3.15-10.8-16.8l11.7-47.25h-10.95l.45-1.65c12.45-4.05,17.55-11.85,22.5-24.6h3l-5.55,21.9h18.6l-1.05,4.35h-18.6l-12,48c-1.8,7.05-.3,10.8,6.3,10.8,3.6,0,6.45-.6,10.2-1.95l-1.05,4.2c-3.45,1.65-9,3-12.75,3Z" />
    <path class="cls-3" d="M838.79,267.15c0,13.35,6.75,22.5,21.15,22.5,21,0,29.25-23.1,29.25-40.2,0-15.45-6.9-21.9-16.95-21.9-9.3,0-13.95,6.3-13.95,13.65,0,5.7,3.15,8.25,7.2,8.7,4.8,.6,7.05,3.15,7.05,6.6s-2.55,6-6.9,6.15c-7.2,.3-13.05-7.35-13.05-17.55,0-13.5,8.85-21.9,19.65-21.9,13.95,0,26.25,11.25,26.25,29.7,0,22.2-15.9,41.1-39.45,41.1-17.7,0-29.55-12.75-29.55-30.3,0-22.2,14.1-34.35,27.3-40.2l1.2,2.55c-11.55,6.75-19.2,24-19.2,41.1Z" />
    <path class="cls-13" d="M941.24,289.35c9-.75,11.55-2.55,13.05-8.4l9.75-39.45c2.4-9.6-1.5-13.8-9.3-13.8s-16.35,2.85-24.3,7.35l-11.25,45.9c-1.5,5.85,0,7.65,8.7,8.4l-.6,2.4h-30.3l.6-2.4c9-.75,11.55-2.55,13.05-8.4l10.05-40.35c.75-3.75-.3-5.1-3.9-5.1h-5.85l.3-1.65,19.5-11.25h2.85l-1.8,7.35c6.6-3.45,16.8-7.35,25.2-7.35,5.7,0,13.5,1.8,15.75,8.85,7.65-4.5,19.35-8.85,27.9-8.85,7.8,0,19.5,3.3,15.6,18.75l-9.75,39.6c-1.5,5.85,0,7.65,8.7,8.4l-.6,2.4h-19.35l12.45-50.25c2.4-9.6-1.5-13.8-9.3-13.8-8.25,0-16.95,3-25.05,7.8,0,1.8-.3,3.75-.75,5.85l-9.75,39.6c-1.5,5.85,0,7.65,8.7,8.4l-.6,2.4h-30.3l.6-2.4Z" />
    <path class="cls-30" d="M1062.89,289.35c9-.75,11.55-2.55,13.05-8.4l19.35-78.45c.9-3.75-.15-5.1-3.75-5.1h-5.85l.3-1.65,19.5-11.25h2.85l-23.85,96.45c-1.5,5.85,0,7.65,8.7,8.4l-.6,2.4h-30.3l.6-2.4Z" />
    <path class="cls-23" d="M1102.19,289.35c9-.75,11.55-2.55,13.05-8.4l10.05-40.35c.75-3.75-.3-5.1-3.9-5.1h-5.85l.3-1.65,19.5-11.25h2.85l-14.4,58.35c-1.5,5.85,0,7.65,8.7,8.4l-.6,2.4h-30.3l.6-2.4Zm44.7-92.25c0,3.6-3,6.6-6.9,6.6-3.6,0-6.3-2.7-6.3-6.3s3-6.75,6.75-6.75,6.45,2.7,6.45,6.45Z" />
    <path class="cls-8" d="M1141.48,289.35c9-.75,11.55-2.55,13.05-8.4l10.05-40.35c.75-3.75-.3-5.1-3.9-5.1h-5.85l.3-1.65,19.5-11.25h2.85l-1.8,7.35c6.6-3.45,16.8-7.35,25.2-7.35,7.8,0,19.35,3.3,15.6,18.75l-15,61.2c-3,12.15,0,19.35,8.25,19.35,12.45,0,10.35-15.45,18.6-15.45,2.55,0,4.35,1.65,4.35,4.5,0,7.65-8.85,15.15-22.95,15.15-12.75,0-20.4-8.55-16.65-23.85l14.7-60.75c2.4-9.6-1.35-13.8-9.15-13.8s-16.35,2.85-24.3,7.35l-11.25,45.9c-1.5,5.85,0,7.65,8.7,8.4l-.6,2.4h-30.3l.6-2.4Z" />
    <path class="cls-25" d="M1265.68,222.6c11.85,0,24.9,5.85,24.9,21l-53.25,16.65c-.3,2.55-.3,4.35-.3,6.3,0,12.45,5.55,23.1,21.3,23.1,11.55,0,18.3-6.6,18.3-10.95,0-3-1.8-4.65-1.8-7.35,0-4.5,3.6-7.2,6.75-7.2,4.2,0,5.55,3.15,5.55,5.7,0,10.5-12.15,24.15-29.85,24.15-19.05,0-29.7-13.05-29.7-29.55,0-26.25,18-41.85,38.1-41.85Zm16.65,18.9c0-10.65-6.9-14.55-16.5-14.55-17.85,0-25.35,14.85-27.9,28.5l44.4-13.95Z" />
    <path class="cls-26" d="M1354.33,271.95c0,14.4-12.3,22.05-27.75,22.05-9.3,0-17.1-3.3-22.95-7.8l-2.7,5.55h-2.85l-2.7-24.45,2.7-.45c5.85,17.25,16.65,22.8,29.1,22.8,9.9,0,19.8-3.9,19.8-15,0-9.15-9.75-11.85-20.7-14.85-10.65-2.85-21.45-6-21.45-17.25s10.05-19.95,25.2-19.95c8.4,0,17.1,2.7,22.35,9.3,0-20.25-3.45-27.3-13.05-27.3-3.6,0-5.55-2.25-5.55-4.95,0-3,2.1-5.85,6.3-5.85,12.75,0,16.2,20.1,16.35,31.05l.15,20.7-2.55,.45c-4.35-14.4-13.35-19.05-24.6-19.05s-16.95,5.55-16.95,12.3c0,7.65,8.85,10.2,18.3,12.9,11.25,3.15,23.55,6.75,23.55,19.8Z" />
    <path class="cls-4" d="M1379.23,285.45c0,4.65-3.45,7.5-7.2,7.5s-6.9-2.55-6.9-6.9,3.45-7.2,7.35-7.2c3.6,0,6.75,2.55,6.75,6.6Z" />
</svg>