<svg width="1226" height="890" viewBox="0 0 1226 890" fill="none" xmlns="http://www.w3.org/2000/svg">
<g id="Clock">
<g id="clock-hand">
<path id="hand-1" d="M600.625 454.75L586.085 221.5L572.625 454.75H600.625Z" fill="#34A203"/>
<path id="hand-2" d="M586.265 468.58L836.625 454L586.265 440.42V468.58Z" fill="#34A203"/>
</g>
<g id="lines">
<path id="line-3" d="M599.555 477.47L762.625 628" stroke="#E4D600" stroke-width="2" stroke-dasharray="6 6"/>
<path id="line-2" d="M403.175 295.58L562.875 438.25" stroke="#A10000" stroke-width="2" stroke-dasharray="6 6"/>
<path id="line-1" d="M591.625 480.53L648.625 700" stroke="#E4D600" stroke-width="2" stroke-dasharray="6 6"/>
</g>
<g id="clock">
<path id="Vector" d="M910.035 318.12C886.077 261.366 847.598 211.921 798.468 174.757C749.337 137.593 691.287 114.02 630.155 106.41L613.625 63.25H669.125V17H503.375V63.25H558.625L543.075 106.42C477.846 114.528 416.206 140.795 365.178 182.228C314.149 223.661 275.785 278.595 254.456 340.769C233.127 402.943 229.69 469.858 244.538 533.891C259.385 597.923 291.92 656.497 338.435 702.94C396.026 760.467 471.818 796.194 552.843 804.009C633.867 811.824 715.09 791.241 782.614 745.782C850.139 700.322 899.768 632.811 923.011 554.799C946.255 476.788 941.668 393.123 910.035 318.12ZM586.625 773.75C410.725 773.75 267.625 630.65 267.625 454.75C267.625 278.85 410.725 135.75 586.625 135.75C762.525 135.75 905.625 278.85 905.625 454.75C905.625 630.65 762.525 773.75 586.625 773.75Z" fill="#F8681B"/>
<g id="clock-digits">
<path id="Vector_2" d="M738.135 703.08L725.365 710.46L711.875 672.34L738.135 703.08Z" fill="#E8DE04"/>
<path id="Vector_3" d="M841.955 593.87L834.625 606.65L803.885 580.38L841.955 593.87Z" fill="#E8DE04"/>
<path id="Vector_4" d="M877.265 447.39V462.14L837.515 454.76L877.265 447.39Z" fill="#34A203"/>
<path id="Vector_5" d="M834.625 302.87L841.995 315.65L803.885 329.13L834.625 302.87Z" fill="#34A203"/>
<path id="Vector_6" d="M725.385 199.05L738.155 206.43L711.895 237.17L725.385 199.05Z" fill="#34A203"/>
<path id="Vector_7" d="M578.895 163.75H593.625L586.255 203.5L578.895 163.75Z" fill="#34A203"/>
<path id="Vector_8" d="M434.385 206.42L447.155 199L460.625 237.16L434.385 206.42Z" fill="#B71818"/>
<path id="Vector_9" d="M330.565 315.63L337.945 302.85L368.675 329.12L330.565 315.63Z" fill="#B71818"/>
<path id="Vector_10" d="M295.265 462.11V447.36L335.015 454.74L295.265 462.11Z" fill="#B71818"/>
<path id="Vector_11" d="M337.925 606.63L330.555 593.85L368.625 580.37L337.925 606.63Z" fill="#B71818"/>
<path id="Vector_12" d="M447.135 710.45L434.365 703.07L460.625 672.33L447.135 710.45Z" fill="#B71818"/>
<path id="Vector_13" d="M584.355 63.5L556.625 68L622.125 86.25L613.625 63.5H584.355Z" fill="#CC4509"/>
<path id="Vector_14" d="M593.625 745.75H578.875L586.255 706L593.625 745.75Z" fill="#E8DE04"/>
</g>
</g>
<path id="center" d="M586.625 475.25C597.947 475.25 607.125 466.072 607.125 454.75C607.125 443.428 597.947 434.25 586.625 434.25C575.303 434.25 566.125 443.428 566.125 454.75C566.125 466.072 575.303 475.25 586.625 475.25Z" fill="#CC4509"/>
<g id="texts">
<g id="t-1">
<g id="Vector_15">
<path d="M1137.66 490.364C1139.78 488.5 1142.66 487.707 1145.44 487.693C1148.23 487.82 1150.84 489.01 1153.26 490.317C1153.27 491.886 1153.26 493.453 1153.31 495.025C1150.78 491.428 1145.61 489.859 1141.63 491.88C1139.34 493.008 1138.78 496.398 1140.56 498.213C1142.44 500.194 1145.24 500.748 1147.75 501.479C1150.73 502.291 1153.47 504.336 1154.68 507.229C1155.92 510.157 1155.21 513.755 1153 516.032C1150.57 518.571 1146.87 519.61 1143.42 519.302C1140.66 518.898 1137.99 517.89 1135.62 516.432C1135.71 514.751 1135.74 513.067 1135.67 511.385C1137.77 514.086 1141.09 515.724 1144.47 516.046C1146.47 516.083 1148.72 515.663 1150.12 514.1C1151.53 512.595 1151.52 510.006 1150.09 508.505C1148.18 506.291 1145.19 505.676 1142.58 504.647C1139.81 503.693 1136.84 502.297 1135.52 499.496C1134.23 496.414 1135.14 492.56 1137.66 490.364Z" fill="black"/>
<path d="M1082.75 488.312C1084.66 487.56 1086.81 489.486 1086.39 491.465C1086.25 493.556 1083.41 494.666 1081.89 493.236C1080.32 491.927 1080.77 488.952 1082.75 488.312Z" fill="black"/>
<path d="M1159.72 488.306C1161.64 487.56 1163.79 489.51 1163.34 491.497C1163.18 493.562 1160.38 494.647 1158.87 493.254C1157.28 491.951 1157.72 488.942 1159.72 488.306Z" fill="black"/>
<path d="M1019.72 488.661C1026.35 488.651 1032.98 488.655 1039.61 488.661V491.955C1037.16 491.965 1034.7 491.955 1032.25 491.965C1032.25 500.93 1032.25 509.903 1032.24 518.868C1030.61 518.878 1028.97 518.878 1027.33 518.868C1027.33 509.903 1027.33 500.93 1027.33 491.965C1024.79 491.955 1022.26 491.965 1019.72 491.955C1019.71 490.856 1019.71 489.759 1019.72 488.661Z" fill="black"/>
<path d="M1094.37 500.002C1097.93 494.085 1108.58 496.545 1109.3 503.354C1109.45 508.523 1109.32 513.699 1109.36 518.868C1107.79 518.878 1106.21 518.878 1104.64 518.868C1104.64 514.147 1104.65 509.421 1104.64 504.698C1104.69 503.036 1104.19 501.186 1102.73 500.224C1100.99 499.161 1098.5 499.179 1096.97 500.621C1095.8 501.706 1094.97 503.136 1094.42 504.619C1094.32 509.363 1094.41 514.118 1094.38 518.868C1092.79 518.878 1091.19 518.878 1089.6 518.868C1089.59 511.631 1089.59 504.397 1089.6 497.16C1091.19 497.15 1092.79 497.15 1094.38 497.16C1094.38 498.104 1094.38 499.052 1094.37 500.002Z" fill="black"/>
<path d="M1193.99 499.996C1197.54 494.103 1208.15 496.527 1208.92 503.302C1209.08 508.485 1208.94 513.683 1208.99 518.868C1207.41 518.874 1205.84 518.874 1204.27 518.868C1204.23 513.836 1204.33 508.798 1204.22 503.764C1204.2 501.418 1202.17 499.349 1199.78 499.496C1196.81 499.278 1194.96 502.197 1194.04 504.633C1193.95 509.373 1194.03 514.124 1194 518.868C1192.41 518.878 1190.81 518.878 1189.22 518.868C1189.22 511.631 1189.22 504.397 1189.22 497.16C1190.81 497.15 1192.41 497.15 1194 497.16C1194 498.104 1193.99 499.052 1193.99 499.996Z" fill="black"/>
<path d="M1042.38 497.16C1043.97 497.15 1045.57 497.15 1047.16 497.16C1047.19 502.045 1047.12 506.938 1047.19 511.829C1047.16 514.165 1048.98 516.381 1051.37 516.488C1054.25 517.027 1057.21 515.002 1057.88 512.216C1057.92 507.198 1057.88 502.178 1057.9 497.16C1059.49 497.15 1061.09 497.15 1062.68 497.16C1062.68 504.397 1062.68 511.631 1062.69 518.868C1061.15 518.874 1059.62 518.874 1058.09 518.874C1058.09 518.081 1058.1 517.287 1058.11 516.494C1055.02 520.177 1049.08 520.12 1045.34 517.499C1043.52 516.206 1042.4 514.011 1042.4 511.777C1042.35 506.904 1042.4 502.031 1042.38 497.16Z" fill="black"/>
<path d="M1070.28 500.375C1072.08 497.602 1075.64 496.497 1078.77 497.447C1078.7 498.675 1078.66 499.903 1078.69 501.134C1077.72 500.45 1076.65 499.883 1075.45 499.75C1072.73 499.94 1070.2 502.376 1070.29 505.171C1070.3 509.736 1070.3 514.302 1070.3 518.868C1068.7 518.878 1067.11 518.878 1065.52 518.868C1065.51 511.791 1065.51 504.708 1065.52 497.632C1067.11 497.622 1068.7 497.622 1070.31 497.632C1070.3 498.542 1070.29 499.458 1070.28 500.375Z" fill="black"/>
<path d="M1116.69 499.161C1121.31 496.2 1127.14 497.031 1132.19 498.268C1132.24 505.46 1132.2 512.65 1132.22 519.836C1132.26 521.901 1131.78 524.019 1130.47 525.657C1128.76 528 1125.78 528.888 1123.03 529.261H1120.01C1117.68 528.902 1115.37 528.218 1113.39 526.905C1113.39 525.223 1113.39 523.547 1113.38 521.867C1115.01 523.817 1116.92 525.832 1119.55 526.29C1121.66 526.601 1124.09 526.564 1125.87 525.243C1127.84 523.495 1127.44 520.602 1127.5 518.241C1122.31 519.963 1115.68 518.075 1112.98 513.104C1110.44 508.409 1112.09 501.938 1116.69 499.161ZM1117.68 502.943C1116.39 505.908 1116.37 509.401 1117.42 512.448C1118.78 516.375 1124.3 517.821 1127.5 515.246C1127.49 510.369 1127.49 505.498 1127.49 500.621C1124.4 498.443 1119.34 499.401 1117.68 502.943Z" fill="black"/>
<path d="M1171.47 499.151C1176.1 496.2 1181.92 497.037 1186.96 498.268C1187.01 505.46 1186.97 512.65 1186.99 519.836C1187.03 521.909 1186.55 524.039 1185.23 525.681C1183.5 528.01 1180.54 528.888 1177.8 529.261H1174.78C1172.45 528.902 1170.14 528.212 1168.16 526.905C1168.16 525.223 1168.16 523.547 1168.15 521.867C1169.78 523.821 1171.7 525.842 1174.34 526.29C1176.44 526.597 1178.84 526.56 1180.63 525.257C1182.62 523.515 1182.21 520.606 1182.27 518.241C1177.07 519.965 1170.44 518.075 1167.74 513.094C1165.21 508.396 1166.87 501.918 1171.47 499.151ZM1172.45 502.953C1171.16 505.916 1171.14 509.415 1172.19 512.456C1173.56 516.381 1179.08 517.821 1182.27 515.242C1182.25 510.369 1182.27 505.492 1182.26 500.621C1179.16 498.443 1174.1 499.407 1172.45 502.953Z" fill="black"/>
<path d="M1081.47 497.4C1083.05 497.409 1084.64 497.409 1086.23 497.396C1086.22 504.552 1086.23 511.71 1086.23 518.868C1084.65 518.878 1083.06 518.878 1081.48 518.868C1081.47 511.71 1081.48 504.558 1081.47 497.4Z" fill="black"/>
<path d="M1158.43 497.4C1160.02 497.409 1161.6 497.409 1163.19 497.396C1163.18 504.552 1163.19 511.71 1163.19 518.868C1161.6 518.878 1160.02 518.878 1158.44 518.868C1158.43 511.71 1158.44 504.558 1158.43 497.4Z" fill="black"/>
<path d="M965.84 483.873C963.387 486.325 961.442 489.237 960.116 492.442C958.79 495.647 958.11 499.083 958.114 502.551C958.114 517.155 969.954 528.994 984.558 528.994C999.161 528.994 1011 517.155 1011 502.551C1011.01 499.083 1010.33 495.647 1009 492.442C1007.67 489.237 1005.73 486.325 1003.27 483.873H965.84Z" fill="#F9681C"/>
<path d="M1011.37 499.203C1006.27 497.253 996.74 494.663 984.621 494.663C972.593 494.663 962.463 497.476 957.881 499.202C957.761 500.243 957.7 501.29 957.699 502.338C957.697 504.619 957.983 506.891 958.553 509.1C964.889 506.206 972.138 503.19 981.84 502.698L978.354 528.526C982.763 529.574 987.365 529.501 991.738 528.311L988.272 502.736C999.234 503.404 1007.03 506.933 1010.74 508.903C1011.28 506.756 1011.55 504.551 1011.55 502.338C1011.55 501.29 1011.49 500.244 1011.37 499.203Z" fill="white"/>
<path d="M1038.39 535.34V565.261H1032.48V542.149L1025.39 544.405V539.75L1037.75 535.34H1038.39Z" fill="#F8681B"/>
<path d="M1062.5 535.34V565.261H1056.6V542.149L1049.5 544.405V539.75L1061.87 535.34H1062.5Z" fill="#F8681B"/>
<path d="M1078.27 547.768H1081.43C1082.44 547.768 1083.28 547.597 1083.94 547.255C1084.59 546.9 1085.08 546.408 1085.39 545.779C1085.72 545.136 1085.88 544.391 1085.88 543.543C1085.88 542.778 1085.73 542.101 1085.43 541.513C1085.15 540.912 1084.7 540.447 1084.1 540.119C1083.5 539.777 1082.74 539.606 1081.82 539.606C1081.1 539.606 1080.43 539.75 1079.81 540.037C1079.2 540.324 1078.71 540.727 1078.34 541.247C1077.97 541.766 1077.78 542.395 1077.78 543.133H1071.86C1071.86 541.493 1072.29 540.064 1073.17 538.847C1074.06 537.63 1075.25 536.68 1076.74 535.997C1078.23 535.313 1079.87 534.971 1081.66 534.971C1083.68 534.971 1085.45 535.299 1086.97 535.956C1088.49 536.598 1089.67 537.548 1090.52 538.806C1091.37 540.064 1091.79 541.623 1091.79 543.482C1091.79 544.425 1091.57 545.341 1091.13 546.23C1090.7 547.105 1090.07 547.898 1089.25 548.609C1088.44 549.306 1087.46 549.867 1086.29 550.291C1085.13 550.701 1083.83 550.906 1082.38 550.906H1078.27V547.768ZM1078.27 552.259V549.204H1082.38C1084 549.204 1085.43 549.388 1086.66 549.757C1087.89 550.126 1088.93 550.66 1089.76 551.357C1090.59 552.041 1091.22 552.854 1091.65 553.797C1092.07 554.727 1092.28 555.759 1092.28 556.894C1092.28 558.289 1092.02 559.533 1091.48 560.626C1090.95 561.707 1090.2 562.623 1089.23 563.375C1088.27 564.126 1087.15 564.701 1085.86 565.097C1084.58 565.48 1083.18 565.671 1081.66 565.671C1080.4 565.671 1079.16 565.5 1077.95 565.159C1076.74 564.803 1075.65 564.277 1074.67 563.58C1073.69 562.869 1072.92 561.98 1072.33 560.914C1071.75 559.833 1071.47 558.555 1071.47 557.079H1077.39C1077.39 557.844 1077.58 558.528 1077.97 559.129C1078.35 559.731 1078.88 560.203 1079.55 560.544C1080.23 560.886 1080.99 561.057 1081.82 561.057C1082.77 561.057 1083.57 560.886 1084.24 560.544C1084.93 560.189 1085.45 559.697 1085.8 559.068C1086.17 558.425 1086.35 557.68 1086.35 556.833C1086.35 555.739 1086.16 554.864 1085.76 554.208C1085.36 553.538 1084.8 553.045 1084.06 552.731C1083.32 552.417 1082.44 552.259 1081.43 552.259H1078.27Z" fill="#F8681B"/>
<path d="M1102.49 547.666V565.261H1096.57V543.072H1102.13L1102.49 547.666ZM1101.67 553.387H1100.03C1100.03 551.842 1100.22 550.42 1100.59 549.122C1100.97 547.809 1101.52 546.674 1102.25 545.717C1102.99 544.747 1103.9 543.995 1104.98 543.461C1106.06 542.928 1107.31 542.662 1108.73 542.662C1109.71 542.662 1110.62 542.812 1111.44 543.113C1112.26 543.4 1112.96 543.858 1113.55 544.487C1114.15 545.102 1114.61 545.909 1114.94 546.907C1115.27 547.891 1115.44 549.074 1115.44 550.455V565.261H1109.53V551.111C1109.53 550.099 1109.39 549.32 1109.12 548.773C1108.85 548.226 1108.46 547.843 1107.95 547.625C1107.46 547.406 1106.86 547.296 1106.17 547.296C1105.4 547.296 1104.73 547.454 1104.16 547.768C1103.6 548.083 1103.13 548.52 1102.76 549.081C1102.39 549.627 1102.12 550.27 1101.94 551.008C1101.76 551.747 1101.67 552.54 1101.67 553.387ZM1114.88 552.71L1112.77 552.977C1112.77 551.528 1112.95 550.181 1113.3 548.937C1113.67 547.693 1114.21 546.599 1114.92 545.656C1115.65 544.712 1116.54 543.981 1117.61 543.461C1118.68 542.928 1119.91 542.662 1121.3 542.662C1122.37 542.662 1123.34 542.819 1124.21 543.133C1125.09 543.434 1125.83 543.919 1126.45 544.589C1127.08 545.246 1127.56 546.107 1127.88 547.173C1128.23 548.24 1128.4 549.545 1128.4 551.09V565.261H1122.47V551.09C1122.47 550.065 1122.33 549.286 1122.06 548.752C1121.8 548.206 1121.42 547.83 1120.91 547.625C1120.42 547.406 1119.83 547.296 1119.15 547.296C1118.44 547.296 1117.81 547.44 1117.28 547.727C1116.75 548 1116.3 548.383 1115.95 548.875C1115.59 549.368 1115.33 549.942 1115.15 550.598C1114.97 551.241 1114.88 551.945 1114.88 552.71Z" fill="#F8681B"/>
<path d="M1144.97 559.129C1144.97 558.706 1144.84 558.323 1144.6 557.981C1144.35 557.639 1143.89 557.325 1143.22 557.038C1142.57 556.737 1141.62 556.463 1140.37 556.217C1139.25 555.971 1138.21 555.664 1137.23 555.294C1136.28 554.912 1135.44 554.454 1134.73 553.92C1134.04 553.387 1133.49 552.758 1133.09 552.034C1132.7 551.295 1132.5 550.455 1132.5 549.511C1132.5 548.582 1132.7 547.707 1133.09 546.886C1133.5 546.066 1134.08 545.341 1134.84 544.712C1135.6 544.07 1136.53 543.571 1137.62 543.215C1138.73 542.846 1139.98 542.662 1141.36 542.662C1143.28 542.662 1144.94 542.969 1146.32 543.584C1147.71 544.2 1148.78 545.047 1149.52 546.127C1150.27 547.194 1150.65 548.411 1150.65 549.778H1144.74C1144.74 549.204 1144.62 548.691 1144.37 548.24C1144.14 547.775 1143.77 547.413 1143.26 547.153C1142.77 546.879 1142.13 546.743 1141.34 546.743C1140.68 546.743 1140.11 546.859 1139.63 547.091C1139.16 547.31 1138.79 547.611 1138.53 547.994C1138.28 548.363 1138.16 548.773 1138.16 549.224C1138.16 549.566 1138.23 549.874 1138.36 550.147C1138.51 550.407 1138.75 550.646 1139.08 550.865C1139.41 551.083 1139.83 551.289 1140.35 551.48C1140.89 551.658 1141.54 551.822 1142.32 551.972C1143.92 552.3 1145.35 552.731 1146.61 553.264C1147.86 553.784 1148.86 554.495 1149.6 555.397C1150.34 556.286 1150.71 557.455 1150.71 558.904C1150.71 559.888 1150.49 560.791 1150.05 561.611C1149.61 562.431 1148.99 563.149 1148.17 563.764C1147.35 564.366 1146.36 564.837 1145.21 565.179C1144.08 565.507 1142.8 565.671 1141.38 565.671C1139.31 565.671 1137.56 565.302 1136.13 564.564C1134.71 563.826 1133.63 562.889 1132.89 561.754C1132.16 560.606 1131.8 559.43 1131.8 558.227H1137.4C1137.43 559.034 1137.63 559.683 1138.01 560.175C1138.41 560.667 1138.91 561.023 1139.51 561.242C1140.13 561.46 1140.79 561.57 1141.5 561.57C1142.27 561.57 1142.9 561.467 1143.41 561.262C1143.91 561.043 1144.3 560.756 1144.56 560.401C1144.83 560.032 1144.97 559.608 1144.97 559.129Z" fill="#F8681B"/>
</g>
</g>
<g id="t-2">
<g id="Vector_16">
<path d="M862.73 741.964V764.761H858.23V747.152L852.824 748.871V745.324L862.246 741.964H862.73Z" fill="black"/>
<path d="M885.699 761.246V764.761H870.137V761.761L877.496 753.871C878.236 753.048 878.819 752.324 879.246 751.699C879.673 751.063 879.98 750.496 880.168 749.996C880.366 749.485 880.465 749.001 880.465 748.542C880.465 747.855 880.35 747.266 880.121 746.777C879.892 746.277 879.553 745.891 879.105 745.621C878.668 745.35 878.126 745.214 877.48 745.214C876.793 745.214 876.199 745.381 875.699 745.714C875.21 746.048 874.835 746.511 874.574 747.105C874.324 747.699 874.199 748.371 874.199 749.121H869.684C869.684 747.766 870.007 746.527 870.652 745.402C871.298 744.266 872.21 743.365 873.387 742.699C874.564 742.022 875.96 741.683 877.574 741.683C879.168 741.683 880.512 741.944 881.605 742.464C882.71 742.975 883.543 743.714 884.105 744.683C884.678 745.641 884.965 746.787 884.965 748.121C884.965 748.871 884.845 749.605 884.605 750.324C884.366 751.032 884.022 751.74 883.574 752.449C883.137 753.147 882.605 753.855 881.98 754.574C881.355 755.292 880.663 756.037 879.902 756.808L875.949 761.246H885.699Z" fill="black"/>
<path d="M903.824 751.386V755.324C903.824 757.032 903.642 758.506 903.277 759.746C902.913 760.975 902.387 761.985 901.699 762.777C901.022 763.558 900.215 764.136 899.277 764.511C898.34 764.886 897.298 765.074 896.152 765.074C895.236 765.074 894.382 764.959 893.59 764.73C892.798 764.49 892.085 764.121 891.449 763.621C890.824 763.121 890.283 762.49 889.824 761.73C889.376 760.959 889.033 760.042 888.793 758.98C888.553 757.917 888.434 756.699 888.434 755.324V751.386C888.434 749.678 888.616 748.214 888.98 746.996C889.355 745.766 889.882 744.761 890.559 743.98C891.246 743.199 892.059 742.626 892.996 742.261C893.934 741.886 894.975 741.699 896.121 741.699C897.038 741.699 897.887 741.819 898.668 742.058C899.46 742.287 900.173 742.647 900.809 743.136C901.444 743.626 901.986 744.256 902.434 745.027C902.882 745.787 903.225 746.699 903.465 747.761C903.704 748.813 903.824 750.022 903.824 751.386ZM899.309 755.917V750.777C899.309 749.954 899.262 749.235 899.168 748.621C899.085 748.006 898.954 747.485 898.777 747.058C898.6 746.621 898.382 746.266 898.121 745.996C897.861 745.725 897.564 745.527 897.23 745.402C896.897 745.277 896.527 745.214 896.121 745.214C895.611 745.214 895.158 745.313 894.762 745.511C894.376 745.709 894.048 746.027 893.777 746.464C893.507 746.891 893.298 747.464 893.152 748.183C893.017 748.891 892.949 749.756 892.949 750.777V755.917C892.949 756.74 892.991 757.464 893.074 758.089C893.168 758.714 893.303 759.251 893.48 759.699C893.668 760.136 893.887 760.496 894.137 760.777C894.397 761.048 894.694 761.246 895.027 761.371C895.371 761.496 895.746 761.558 896.152 761.558C896.652 761.558 897.095 761.459 897.48 761.261C897.876 761.053 898.21 760.73 898.48 760.292C898.762 759.845 898.97 759.261 899.105 758.542C899.241 757.824 899.309 756.949 899.309 755.917Z" fill="black"/>
<path d="M911.574 751.355V764.761H907.059V747.855H911.293L911.574 751.355ZM910.949 755.714H909.699C909.699 754.537 909.84 753.454 910.121 752.464C910.413 751.464 910.835 750.6 911.387 749.871C911.949 749.131 912.642 748.558 913.465 748.152C914.288 747.746 915.241 747.542 916.324 747.542C917.074 747.542 917.762 747.657 918.387 747.886C919.012 748.105 919.548 748.454 919.996 748.933C920.454 749.402 920.809 750.016 921.059 750.777C921.309 751.527 921.434 752.428 921.434 753.48V764.761H916.934V753.98C916.934 753.209 916.829 752.615 916.621 752.199C916.413 751.782 916.116 751.49 915.73 751.324C915.355 751.157 914.902 751.074 914.371 751.074C913.788 751.074 913.277 751.194 912.84 751.433C912.413 751.673 912.059 752.006 911.777 752.433C911.496 752.85 911.288 753.339 911.152 753.902C911.017 754.464 910.949 755.069 910.949 755.714ZM921.012 755.199L919.402 755.402C919.402 754.298 919.538 753.272 919.809 752.324C920.09 751.376 920.501 750.542 921.043 749.824C921.595 749.105 922.277 748.548 923.09 748.152C923.902 747.746 924.84 747.542 925.902 747.542C926.715 747.542 927.454 747.662 928.121 747.902C928.788 748.131 929.355 748.501 929.824 749.011C930.303 749.511 930.668 750.167 930.918 750.98C931.178 751.792 931.309 752.787 931.309 753.964V764.761H926.793V753.964C926.793 753.183 926.689 752.589 926.48 752.183C926.283 751.766 925.991 751.48 925.605 751.324C925.23 751.157 924.783 751.074 924.262 751.074C923.72 751.074 923.246 751.183 922.84 751.402C922.434 751.61 922.095 751.902 921.824 752.277C921.553 752.652 921.35 753.089 921.215 753.589C921.079 754.079 921.012 754.615 921.012 755.199Z" fill="black"/>
<path d="M943.934 760.089C943.934 759.766 943.84 759.475 943.652 759.214C943.465 758.954 943.116 758.714 942.605 758.496C942.105 758.266 941.382 758.058 940.434 757.871C939.579 757.683 938.783 757.449 938.043 757.167C937.314 756.876 936.678 756.527 936.137 756.121C935.605 755.714 935.189 755.235 934.887 754.683C934.585 754.121 934.434 753.48 934.434 752.761C934.434 752.053 934.585 751.386 934.887 750.761C935.199 750.136 935.642 749.584 936.215 749.105C936.798 748.615 937.507 748.235 938.34 747.964C939.184 747.683 940.132 747.542 941.184 747.542C942.652 747.542 943.913 747.777 944.965 748.246C946.027 748.714 946.84 749.36 947.402 750.183C947.975 750.996 948.262 751.923 948.262 752.964H943.762C943.762 752.527 943.668 752.136 943.48 751.792C943.303 751.438 943.022 751.162 942.637 750.964C942.262 750.756 941.772 750.652 941.168 750.652C940.668 750.652 940.236 750.74 939.871 750.917C939.507 751.084 939.225 751.313 939.027 751.605C938.84 751.886 938.746 752.199 938.746 752.542C938.746 752.803 938.798 753.037 938.902 753.246C939.017 753.444 939.199 753.626 939.449 753.792C939.699 753.959 940.022 754.115 940.418 754.261C940.824 754.397 941.324 754.522 941.918 754.636C943.137 754.886 944.225 755.214 945.184 755.621C946.142 756.016 946.902 756.558 947.465 757.246C948.027 757.923 948.309 758.813 948.309 759.917C948.309 760.667 948.142 761.355 947.809 761.98C947.475 762.605 946.996 763.152 946.371 763.621C945.746 764.079 944.996 764.438 944.121 764.699C943.257 764.949 942.283 765.074 941.199 765.074C939.626 765.074 938.293 764.792 937.199 764.23C936.116 763.667 935.293 762.954 934.73 762.089C934.178 761.214 933.902 760.319 933.902 759.402H938.168C938.189 760.016 938.345 760.511 938.637 760.886C938.939 761.261 939.319 761.532 939.777 761.699C940.246 761.865 940.751 761.949 941.293 761.949C941.876 761.949 942.361 761.871 942.746 761.714C943.132 761.548 943.423 761.329 943.621 761.058C943.829 760.777 943.934 760.454 943.934 760.089Z" fill="black"/>
<path d="M865.418 718.328H870.09C869.996 719.859 869.574 721.219 868.824 722.406C868.085 723.594 867.048 724.521 865.715 725.188C864.392 725.854 862.798 726.188 860.934 726.188C859.475 726.188 858.168 725.938 857.012 725.438C855.855 724.927 854.866 724.198 854.043 723.25C853.23 722.302 852.611 721.156 852.184 719.812C851.757 718.469 851.543 716.964 851.543 715.297V713.719C851.543 712.052 851.762 710.547 852.199 709.203C852.647 707.849 853.283 706.698 854.105 705.75C854.939 704.802 855.934 704.073 857.09 703.562C858.246 703.052 859.538 702.797 860.965 702.797C862.861 702.797 864.46 703.141 865.762 703.828C867.074 704.516 868.09 705.464 868.809 706.672C869.538 707.88 869.975 709.255 870.121 710.797H865.434C865.382 709.88 865.199 709.104 864.887 708.469C864.574 707.823 864.1 707.339 863.465 707.016C862.84 706.682 862.007 706.516 860.965 706.516C860.184 706.516 859.501 706.661 858.918 706.953C858.335 707.245 857.845 707.688 857.449 708.281C857.053 708.875 856.757 709.625 856.559 710.531C856.371 711.427 856.277 712.479 856.277 713.688V715.297C856.277 716.474 856.366 717.51 856.543 718.406C856.72 719.292 856.991 720.042 857.355 720.656C857.73 721.26 858.21 721.719 858.793 722.031C859.387 722.333 860.1 722.484 860.934 722.484C861.913 722.484 862.72 722.328 863.355 722.016C863.991 721.703 864.475 721.24 864.809 720.625C865.152 720.01 865.355 719.245 865.418 718.328Z" fill="black"/>
<path d="M882.418 707.016L876.23 725.875H871.246L879.699 703.125H882.871L882.418 707.016ZM887.559 725.875L881.355 707.016L880.855 703.125H884.059L892.559 725.875H887.559ZM887.277 717.406V721.078H875.262V717.406H887.277Z" fill="black"/>
<path d="M894.59 716.969V716.625C894.59 714.427 894.819 712.432 895.277 710.641C895.746 708.849 896.361 707.276 897.121 705.922C897.892 704.557 898.73 703.427 899.637 702.531C900.543 701.635 901.444 700.99 902.34 700.594L903.199 702.969C902.605 703.406 902.022 704.01 901.449 704.781C900.876 705.542 900.355 706.479 899.887 707.594C899.428 708.698 899.059 710 898.777 711.5C898.496 712.99 898.355 714.688 898.355 716.594V717C898.355 718.906 898.496 720.609 898.777 722.109C899.059 723.599 899.428 724.901 899.887 726.016C900.355 727.141 900.876 728.089 901.449 728.859C902.022 729.63 902.605 730.24 903.199 730.688L902.34 733C901.444 732.604 900.543 731.958 899.637 731.062C898.73 730.177 897.892 729.052 897.121 727.688C896.361 726.333 895.746 724.76 895.277 722.969C894.819 721.167 894.59 719.167 894.59 716.969Z" fill="black"/>
<path d="M916.355 703.078V725.875H911.855V708.266L906.449 709.984V706.438L915.871 703.078H916.355Z" fill="black"/>
<path d="M931.684 716.625V716.969C931.684 719.094 931.444 721.052 930.965 722.844C930.486 724.625 929.85 726.203 929.059 727.578C928.277 728.964 927.418 730.115 926.48 731.031C925.553 731.948 924.626 732.604 923.699 733L922.824 730.688C923.418 730.25 923.996 729.646 924.559 728.875C925.132 728.104 925.652 727.156 926.121 726.031C926.59 724.917 926.96 723.609 927.23 722.109C927.512 720.609 927.652 718.906 927.652 717V716.594C927.652 714.688 927.512 712.984 927.23 711.484C926.949 709.984 926.569 708.677 926.09 707.562C925.621 706.438 925.1 705.495 924.527 704.734C923.965 703.964 923.397 703.359 922.824 702.922L923.699 700.594C924.626 700.99 925.553 701.651 926.48 702.578C927.418 703.495 928.277 704.641 929.059 706.016C929.85 707.391 930.486 708.974 930.965 710.766C931.444 712.547 931.684 714.5 931.684 716.625Z" fill="black"/>
</g>
</g>
<g id="t-3">
<g id="Vector_17">
<path d="M696.309 818.453H700.981C700.887 819.984 700.465 821.344 699.715 822.531C698.976 823.719 697.939 824.646 696.606 825.312C695.283 825.979 693.689 826.312 691.825 826.312C690.366 826.312 689.059 826.062 687.903 825.562C686.747 825.052 685.757 824.323 684.934 823.375C684.122 822.427 683.502 821.281 683.075 819.938C682.648 818.594 682.434 817.089 682.434 815.422V813.844C682.434 812.177 682.653 810.672 683.09 809.328C683.538 807.974 684.174 806.823 684.997 805.875C685.83 804.927 686.825 804.198 687.981 803.688C689.137 803.177 690.429 802.922 691.856 802.922C693.752 802.922 695.351 803.266 696.653 803.953C697.965 804.641 698.981 805.589 699.7 806.797C700.429 808.005 700.866 809.38 701.012 810.922H696.325C696.273 810.005 696.09 809.229 695.778 808.594C695.465 807.948 694.991 807.464 694.356 807.141C693.731 806.807 692.898 806.641 691.856 806.641C691.075 806.641 690.392 806.786 689.809 807.078C689.226 807.37 688.736 807.812 688.34 808.406C687.944 809 687.648 809.75 687.45 810.656C687.262 811.552 687.168 812.604 687.168 813.812V815.422C687.168 816.599 687.257 817.635 687.434 818.531C687.611 819.417 687.882 820.167 688.247 820.781C688.622 821.385 689.101 821.844 689.684 822.156C690.278 822.458 690.991 822.609 691.825 822.609C692.804 822.609 693.611 822.453 694.247 822.141C694.882 821.828 695.366 821.365 695.7 820.75C696.043 820.135 696.247 819.37 696.309 818.453Z" fill="black"/>
<path d="M713.309 807.141L707.122 826H702.137L710.59 803.25H713.762L713.309 807.141ZM718.45 826L712.247 807.141L711.747 803.25H714.95L723.45 826H718.45ZM718.168 817.531V821.203H706.153V817.531H718.168Z" fill="black"/>
<path d="M725.481 817.094V816.75C725.481 814.552 725.71 812.557 726.168 810.766C726.637 808.974 727.252 807.401 728.012 806.047C728.783 804.682 729.622 803.552 730.528 802.656C731.434 801.76 732.335 801.115 733.231 800.719L734.09 803.094C733.497 803.531 732.913 804.135 732.34 804.906C731.767 805.667 731.247 806.604 730.778 807.719C730.319 808.823 729.95 810.125 729.668 811.625C729.387 813.115 729.247 814.812 729.247 816.719V817.125C729.247 819.031 729.387 820.734 729.668 822.234C729.95 823.724 730.319 825.026 730.778 826.141C731.247 827.266 731.767 828.214 732.34 828.984C732.913 829.755 733.497 830.365 734.09 830.812L733.231 833.125C732.335 832.729 731.434 832.083 730.528 831.188C729.622 830.302 728.783 829.177 728.012 827.812C727.252 826.458 726.637 824.885 726.168 823.094C725.71 821.292 725.481 819.292 725.481 817.094Z" fill="black"/>
<path d="M751.84 822.484V826H736.278V823L743.637 815.109C744.377 814.286 744.96 813.562 745.387 812.938C745.814 812.302 746.122 811.734 746.309 811.234C746.507 810.724 746.606 810.24 746.606 809.781C746.606 809.094 746.491 808.505 746.262 808.016C746.033 807.516 745.694 807.13 745.247 806.859C744.809 806.589 744.267 806.453 743.622 806.453C742.934 806.453 742.34 806.62 741.84 806.953C741.351 807.286 740.976 807.75 740.715 808.344C740.465 808.938 740.34 809.609 740.34 810.359H735.825C735.825 809.005 736.148 807.766 736.793 806.641C737.439 805.505 738.351 804.604 739.528 803.938C740.705 803.26 742.101 802.922 743.715 802.922C745.309 802.922 746.653 803.182 747.747 803.703C748.851 804.214 749.684 804.953 750.247 805.922C750.819 806.88 751.106 808.026 751.106 809.359C751.106 810.109 750.986 810.844 750.747 811.562C750.507 812.271 750.163 812.979 749.715 813.688C749.278 814.385 748.747 815.094 748.122 815.812C747.497 816.531 746.804 817.276 746.043 818.047L742.09 822.484H751.84Z" fill="black"/>
<path d="M762.575 816.75V817.094C762.575 819.219 762.335 821.177 761.856 822.969C761.377 824.75 760.741 826.328 759.95 827.703C759.168 829.089 758.309 830.24 757.372 831.156C756.444 832.073 755.517 832.729 754.59 833.125L753.715 830.812C754.309 830.375 754.887 829.771 755.45 829C756.023 828.229 756.543 827.281 757.012 826.156C757.481 825.042 757.851 823.734 758.122 822.234C758.403 820.734 758.543 819.031 758.543 817.125V816.719C758.543 814.812 758.403 813.109 758.122 811.609C757.84 810.109 757.46 808.802 756.981 807.688C756.512 806.562 755.991 805.62 755.418 804.859C754.856 804.089 754.288 803.484 753.715 803.047L754.59 800.719C755.517 801.115 756.444 801.776 757.372 802.703C758.309 803.62 759.168 804.766 759.95 806.141C760.741 807.516 761.377 809.099 761.856 810.891C762.335 812.672 762.575 814.625 762.575 816.75Z" fill="black"/>
<path d="M691.73 841.203V864H687.23V846.391L681.824 848.109V844.562L691.246 841.203H691.73Z" fill="black"/>
<path d="M703.746 850.672H706.152C706.923 850.672 707.559 850.542 708.059 850.281C708.559 850.01 708.928 849.635 709.168 849.156C709.418 848.667 709.543 848.099 709.543 847.453C709.543 846.87 709.428 846.354 709.199 845.906C708.98 845.448 708.642 845.094 708.184 844.844C707.725 844.583 707.147 844.453 706.449 844.453C705.897 844.453 705.387 844.562 704.918 844.781C704.449 845 704.074 845.307 703.793 845.703C703.512 846.099 703.371 846.578 703.371 847.141H698.855C698.855 845.891 699.189 844.802 699.855 843.875C700.533 842.948 701.439 842.224 702.574 841.703C703.71 841.182 704.96 840.922 706.324 840.922C707.866 840.922 709.215 841.172 710.371 841.672C711.527 842.161 712.428 842.885 713.074 843.844C713.72 844.802 714.043 845.99 714.043 847.406C714.043 848.125 713.876 848.823 713.543 849.5C713.21 850.167 712.73 850.771 712.105 851.312C711.491 851.844 710.741 852.271 709.855 852.594C708.97 852.906 707.975 853.062 706.871 853.062H703.746V850.672ZM703.746 854.094V851.766H706.871C708.111 851.766 709.199 851.906 710.137 852.188C711.074 852.469 711.861 852.875 712.496 853.406C713.132 853.927 713.611 854.547 713.934 855.266C714.257 855.974 714.418 856.76 714.418 857.625C714.418 858.688 714.215 859.635 713.809 860.469C713.402 861.292 712.829 861.99 712.09 862.562C711.361 863.135 710.507 863.573 709.527 863.875C708.548 864.167 707.48 864.312 706.324 864.312C705.366 864.312 704.423 864.182 703.496 863.922C702.579 863.651 701.746 863.25 700.996 862.719C700.257 862.177 699.663 861.5 699.215 860.688C698.777 859.865 698.559 858.891 698.559 857.766H703.074C703.074 858.349 703.22 858.87 703.512 859.328C703.803 859.786 704.204 860.146 704.715 860.406C705.236 860.667 705.814 860.797 706.449 860.797C707.168 860.797 707.783 860.667 708.293 860.406C708.814 860.135 709.21 859.76 709.48 859.281C709.762 858.792 709.902 858.224 709.902 857.578C709.902 856.745 709.751 856.078 709.449 855.578C709.147 855.068 708.715 854.693 708.152 854.453C707.59 854.214 706.923 854.094 706.152 854.094H703.746Z" fill="black"/>
<path d="M732.84 857.766C732.84 859.193 732.507 860.396 731.84 861.375C731.173 862.344 730.257 863.078 729.09 863.578C727.934 864.068 726.621 864.312 725.152 864.312C723.684 864.312 722.366 864.068 721.199 863.578C720.033 863.078 719.111 862.344 718.434 861.375C717.757 860.396 717.418 859.193 717.418 857.766C717.418 856.807 717.611 855.943 717.996 855.172C718.382 854.391 718.918 853.724 719.605 853.172C720.303 852.609 721.121 852.182 722.059 851.891C722.996 851.589 724.017 851.438 725.121 851.438C726.6 851.438 727.923 851.698 729.09 852.219C730.257 852.74 731.173 853.474 731.84 854.422C732.507 855.37 732.84 856.484 732.84 857.766ZM728.309 857.469C728.309 856.771 728.173 856.172 727.902 855.672C727.642 855.161 727.272 854.771 726.793 854.5C726.314 854.229 725.757 854.094 725.121 854.094C724.486 854.094 723.928 854.229 723.449 854.5C722.97 854.771 722.595 855.161 722.324 855.672C722.064 856.172 721.934 856.771 721.934 857.469C721.934 858.156 722.064 858.75 722.324 859.25C722.595 859.75 722.97 860.135 723.449 860.406C723.939 860.667 724.507 860.797 725.152 860.797C725.798 860.797 726.355 860.667 726.824 860.406C727.303 860.135 727.668 859.75 727.918 859.25C728.178 858.75 728.309 858.156 728.309 857.469ZM732.355 847.281C732.355 848.438 732.048 849.464 731.434 850.359C730.819 851.245 729.965 851.938 728.871 852.438C727.788 852.938 726.548 853.188 725.152 853.188C723.746 853.188 722.496 852.938 721.402 852.438C720.309 851.938 719.454 851.245 718.84 850.359C718.225 849.464 717.918 848.438 717.918 847.281C717.918 845.906 718.225 844.75 718.84 843.812C719.465 842.865 720.319 842.146 721.402 841.656C722.496 841.167 723.736 840.922 725.121 840.922C726.527 840.922 727.772 841.167 728.855 841.656C729.949 842.146 730.803 842.865 731.418 843.812C732.043 844.75 732.355 845.906 732.355 847.281ZM727.855 847.484C727.855 846.87 727.746 846.339 727.527 845.891C727.309 845.432 726.996 845.078 726.59 844.828C726.194 844.578 725.704 844.453 725.121 844.453C724.559 844.453 724.074 844.573 723.668 844.812C723.272 845.052 722.965 845.401 722.746 845.859C722.538 846.307 722.434 846.849 722.434 847.484C722.434 848.099 722.538 848.641 722.746 849.109C722.965 849.568 723.277 849.927 723.684 850.188C724.09 850.448 724.579 850.578 725.152 850.578C725.725 850.578 726.21 850.448 726.605 850.188C727.012 849.927 727.319 849.568 727.527 849.109C727.746 848.641 727.855 848.099 727.855 847.484Z" fill="black"/>
<path d="M740.574 850.594V864H736.059V847.094H740.293L740.574 850.594ZM739.949 854.953H738.699C738.699 853.776 738.84 852.693 739.121 851.703C739.413 850.703 739.835 849.839 740.387 849.109C740.949 848.37 741.642 847.797 742.465 847.391C743.288 846.984 744.241 846.781 745.324 846.781C746.074 846.781 746.762 846.896 747.387 847.125C748.012 847.344 748.548 847.693 748.996 848.172C749.454 848.641 749.809 849.255 750.059 850.016C750.309 850.766 750.434 851.667 750.434 852.719V864H745.934V853.219C745.934 852.448 745.829 851.854 745.621 851.438C745.413 851.021 745.116 850.729 744.73 850.562C744.355 850.396 743.902 850.312 743.371 850.312C742.788 850.312 742.277 850.432 741.84 850.672C741.413 850.911 741.059 851.245 740.777 851.672C740.496 852.089 740.288 852.578 740.152 853.141C740.017 853.703 739.949 854.307 739.949 854.953ZM750.012 854.438L748.402 854.641C748.402 853.536 748.538 852.51 748.809 851.562C749.09 850.615 749.501 849.781 750.043 849.062C750.595 848.344 751.277 847.786 752.09 847.391C752.902 846.984 753.84 846.781 754.902 846.781C755.715 846.781 756.454 846.901 757.121 847.141C757.788 847.37 758.355 847.74 758.824 848.25C759.303 848.75 759.668 849.406 759.918 850.219C760.178 851.031 760.309 852.026 760.309 853.203V864H755.793V853.203C755.793 852.422 755.689 851.828 755.48 851.422C755.283 851.005 754.991 850.719 754.605 850.562C754.23 850.396 753.783 850.312 753.262 850.312C752.72 850.312 752.246 850.422 751.84 850.641C751.434 850.849 751.095 851.141 750.824 851.516C750.553 851.891 750.35 852.328 750.215 852.828C750.079 853.318 750.012 853.854 750.012 854.438Z" fill="black"/>
<path d="M772.934 859.328C772.934 859.005 772.84 858.714 772.652 858.453C772.465 858.193 772.116 857.953 771.605 857.734C771.105 857.505 770.382 857.297 769.434 857.109C768.579 856.922 767.783 856.688 767.043 856.406C766.314 856.115 765.678 855.766 765.137 855.359C764.605 854.953 764.189 854.474 763.887 853.922C763.585 853.359 763.434 852.719 763.434 852C763.434 851.292 763.585 850.625 763.887 850C764.199 849.375 764.642 848.823 765.215 848.344C765.798 847.854 766.507 847.474 767.34 847.203C768.184 846.922 769.132 846.781 770.184 846.781C771.652 846.781 772.913 847.016 773.965 847.484C775.027 847.953 775.84 848.599 776.402 849.422C776.975 850.234 777.262 851.161 777.262 852.203H772.762C772.762 851.766 772.668 851.375 772.48 851.031C772.303 850.677 772.022 850.401 771.637 850.203C771.262 849.995 770.772 849.891 770.168 849.891C769.668 849.891 769.236 849.979 768.871 850.156C768.507 850.323 768.225 850.552 768.027 850.844C767.84 851.125 767.746 851.438 767.746 851.781C767.746 852.042 767.798 852.276 767.902 852.484C768.017 852.682 768.199 852.865 768.449 853.031C768.699 853.198 769.022 853.354 769.418 853.5C769.824 853.635 770.324 853.76 770.918 853.875C772.137 854.125 773.225 854.453 774.184 854.859C775.142 855.255 775.902 855.797 776.465 856.484C777.027 857.161 777.309 858.052 777.309 859.156C777.309 859.906 777.142 860.594 776.809 861.219C776.475 861.844 775.996 862.391 775.371 862.859C774.746 863.318 773.996 863.677 773.121 863.938C772.257 864.188 771.283 864.312 770.199 864.312C768.626 864.312 767.293 864.031 766.199 863.469C765.116 862.906 764.293 862.193 763.73 861.328C763.178 860.453 762.902 859.557 762.902 858.641H767.168C767.189 859.255 767.345 859.75 767.637 860.125C767.939 860.5 768.319 860.771 768.777 860.938C769.246 861.104 769.751 861.188 770.293 861.188C770.876 861.188 771.361 861.109 771.746 860.953C772.132 860.786 772.423 860.568 772.621 860.297C772.829 860.016 772.934 859.693 772.934 859.328Z" fill="black"/>
</g>
</g>
<g id="t-4">
<g id="Vector_18">
<path d="M228.154 182.228L225.901 184.927L213.955 174.954L215.877 172.651L226.583 171.31C227.679 171.152 228.59 170.97 229.319 170.764C230.054 170.55 230.653 170.311 231.118 170.047C231.597 169.782 231.983 169.474 232.277 169.122C232.718 168.594 233.007 168.069 233.145 167.546C233.289 167.016 233.276 166.503 233.106 166.008C232.944 165.52 232.615 165.069 232.119 164.655C231.591 164.214 231.028 163.962 230.431 163.897C229.842 163.839 229.257 163.955 228.676 164.244C228.104 164.539 227.577 164.975 227.097 165.551L223.63 162.657C224.498 161.617 225.54 160.873 226.757 160.423C227.98 159.965 229.257 159.858 230.588 160.1C231.926 160.335 233.214 160.969 234.454 162.004C235.677 163.025 236.542 164.086 237.048 165.187C237.568 166.287 237.734 167.388 237.545 168.493C237.371 169.595 236.856 170.659 236.002 171.682C235.521 172.258 234.959 172.745 234.314 173.143C233.676 173.533 232.958 173.857 232.161 174.114C231.377 174.369 230.516 174.572 229.575 174.723C228.635 174.875 227.626 175.003 226.548 175.107L220.67 175.98L228.154 182.228Z" fill="black"/>
<path d="M251.702 176.525L252.206 176.946L249.903 179.705L249.699 179.534C248.787 178.773 247.862 178.232 246.924 177.909C245.985 177.587 245.057 177.471 244.141 177.561C243.239 177.65 242.363 177.936 241.512 178.419C240.668 178.909 239.883 179.59 239.155 180.461L236.732 183.364C236.211 183.988 235.811 184.59 235.53 185.17C235.264 185.748 235.113 186.294 235.078 186.808C235.058 187.32 235.141 187.789 235.327 188.216C235.52 188.635 235.817 189.012 236.216 189.345C236.592 189.659 236.999 189.863 237.436 189.957C237.882 190.057 238.332 190.053 238.789 189.946C239.26 189.837 239.715 189.633 240.154 189.335C240.607 189.035 241.031 188.649 241.425 188.178C241.819 187.706 242.123 187.22 242.337 186.72C242.558 186.227 242.677 185.743 242.694 185.268C242.717 184.785 242.635 184.33 242.449 183.903C242.263 183.476 241.97 183.096 241.57 182.762C241.026 182.308 240.439 182.036 239.81 181.944C239.195 181.852 238.608 181.905 238.049 182.103C237.49 182.301 237.023 182.61 236.646 183.028L236.163 181.485C236.701 180.889 237.317 180.413 238.009 180.054C238.71 179.703 239.445 179.489 240.214 179.412C240.999 179.334 241.787 179.422 242.579 179.676C243.377 179.922 244.149 180.356 244.892 180.977C245.708 181.657 246.293 182.411 246.649 183.237C247.012 184.069 247.175 184.931 247.137 185.822C247.099 186.713 246.886 187.601 246.5 188.486C246.114 189.371 245.584 190.218 244.91 191.026C244.202 191.873 243.404 192.544 242.517 193.038C241.638 193.539 240.711 193.844 239.737 193.954C238.772 194.07 237.802 193.98 236.829 193.683C235.856 193.386 234.921 192.864 234.025 192.116C233.098 191.342 232.394 190.47 231.915 189.5C231.45 188.528 231.203 187.508 231.174 186.438C231.144 185.369 231.335 184.286 231.747 183.192C232.166 182.104 232.797 181.056 233.638 180.049L234.759 178.705C235.934 177.298 237.213 176.181 238.595 175.353C239.992 174.525 241.436 174.007 242.926 173.799C244.423 173.583 245.916 173.696 247.405 174.139C248.894 174.582 250.327 175.377 251.702 176.525Z" fill="black"/>
<path d="M254.246 191.228L256.093 192.77C256.685 193.264 257.256 193.571 257.807 193.692C258.364 193.804 258.889 193.753 259.38 193.539C259.885 193.323 260.345 192.968 260.759 192.472C261.133 192.024 261.375 191.555 261.486 191.064C261.612 190.572 261.579 190.083 261.388 189.597C261.203 189.104 260.842 188.633 260.306 188.186C259.883 187.832 259.421 187.589 258.921 187.457C258.421 187.324 257.936 187.32 257.466 187.443C256.997 187.567 256.582 187.845 256.221 188.277L252.755 185.383C253.556 184.423 254.509 183.801 255.615 183.517C256.729 183.239 257.889 183.264 259.094 183.592C260.299 183.92 261.426 184.521 262.473 185.395C263.657 186.383 264.532 187.44 265.099 188.564C265.673 189.681 265.901 190.814 265.783 191.964C265.664 193.114 265.151 194.232 264.243 195.32C263.783 195.871 263.208 196.3 262.518 196.606C261.835 196.905 261.08 197.061 260.253 197.077C259.44 197.091 258.591 196.938 257.704 196.618C256.824 196.291 255.961 195.773 255.113 195.066L252.714 193.063L254.246 191.228ZM252.053 193.855L253.545 192.067L255.944 194.07C256.896 194.864 257.641 195.67 258.181 196.487C258.72 197.303 259.063 198.119 259.211 198.934C259.365 199.741 259.335 200.524 259.123 201.283C258.917 202.034 258.537 202.741 257.983 203.404C257.302 204.22 256.538 204.818 255.692 205.197C254.853 205.568 253.966 205.737 253.031 205.703C252.104 205.675 251.168 205.464 250.223 205.068C249.284 204.665 248.371 204.092 247.484 203.351C246.748 202.737 246.108 202.033 245.563 201.239C245.033 200.444 244.65 199.602 244.415 198.713C244.194 197.824 244.172 196.923 244.349 196.012C244.541 195.1 244.997 194.213 245.718 193.349L249.184 196.243C248.81 196.691 248.589 197.184 248.519 197.723C248.449 198.261 248.526 198.794 248.751 199.321C248.984 199.855 249.345 200.325 249.832 200.733C250.384 201.193 250.939 201.487 251.498 201.614C252.072 201.74 252.616 201.706 253.131 201.512C253.66 201.316 254.132 200.97 254.546 200.475C255.08 199.835 255.391 199.226 255.48 198.649C255.575 198.063 255.484 197.499 255.205 196.954C254.927 196.41 254.492 195.891 253.9 195.397L252.053 193.855Z" fill="black"/>
<path d="M268.462 202.993L259.87 213.285L256.404 210.391L267.238 197.413L270.489 200.126L268.462 202.993ZM265.188 205.939L264.229 205.138C264.983 204.235 265.785 203.493 266.635 202.914C267.5 202.333 268.378 201.94 269.269 201.734C270.175 201.527 271.074 201.531 271.966 201.746C272.858 201.962 273.72 202.417 274.552 203.111C275.127 203.591 275.582 204.12 275.915 204.696C276.254 205.265 276.442 205.877 276.479 206.531C276.531 207.185 276.409 207.884 276.113 208.628C275.824 209.364 275.343 210.136 274.669 210.943L267.439 219.603L263.985 216.72L270.894 208.443C271.388 207.851 271.688 207.329 271.795 206.875C271.903 206.422 271.862 206.008 271.673 205.633C271.491 205.265 271.197 204.91 270.789 204.57C270.341 204.196 269.873 203.961 269.383 203.865C268.902 203.775 268.417 203.804 267.927 203.951C267.444 204.091 266.97 204.333 266.506 204.678C266.041 205.023 265.602 205.444 265.188 205.939ZM273.243 211.992L271.878 211.117C272.585 210.269 273.347 209.568 274.162 209.014C274.986 208.467 275.836 208.091 276.712 207.886C277.596 207.688 278.477 207.698 279.355 207.914C280.239 208.123 281.089 208.568 281.904 209.249C282.528 209.77 283.019 210.336 283.377 210.947C283.742 211.55 283.941 212.198 283.974 212.89C284.021 213.581 283.88 214.318 283.552 215.102C283.231 215.893 282.693 216.74 281.939 217.643L275.02 225.932L271.553 223.038L278.473 214.75C278.973 214.15 279.274 213.627 279.374 213.182C279.489 212.735 279.449 212.328 279.253 211.961C279.072 211.593 278.782 211.242 278.382 210.908C277.966 210.561 277.532 210.341 277.08 210.249C276.635 210.149 276.188 210.156 275.74 210.27C275.291 210.384 274.855 210.59 274.431 210.887C274.013 211.176 273.617 211.544 273.243 211.992Z" fill="black"/>
<path d="M287.706 230.436C287.912 230.188 288.027 229.904 288.05 229.584C288.073 229.264 287.959 228.857 287.707 228.362C287.47 227.865 287.048 227.241 286.441 226.49C285.905 225.799 285.444 225.108 285.056 224.418C284.683 223.727 284.419 223.052 284.264 222.393C284.116 221.741 284.103 221.106 284.225 220.488C284.354 219.863 284.648 219.274 285.109 218.723C285.563 218.179 286.106 217.764 286.739 217.478C287.379 217.198 288.073 217.058 288.82 217.057C289.581 217.055 290.368 217.217 291.182 217.543C292.01 217.868 292.828 218.368 293.635 219.042C294.763 219.983 295.58 220.971 296.087 222.005C296.603 223.046 296.812 224.062 296.717 225.054C296.636 226.045 296.262 226.941 295.594 227.74L292.14 224.856C292.42 224.521 292.598 224.161 292.675 223.777C292.766 223.391 292.727 222.999 292.558 222.6C292.403 222.2 292.094 221.806 291.631 221.419C291.247 221.099 290.858 220.889 290.465 220.792C290.078 220.686 289.715 220.682 289.376 220.779C289.052 220.875 288.78 221.054 288.56 221.318C288.393 221.518 288.283 221.731 288.229 221.958C288.19 222.184 288.213 222.44 288.298 222.728C288.384 223.017 288.531 223.343 288.742 223.709C288.967 224.073 289.271 224.49 289.653 224.958C290.428 225.931 291.054 226.881 291.529 227.807C292.011 228.725 292.248 229.628 292.239 230.516C292.237 231.396 291.882 232.26 291.174 233.108C290.694 233.684 290.125 234.105 289.469 234.371C288.812 234.637 288.094 234.75 287.314 234.709C286.54 234.66 285.734 234.456 284.896 234.095C284.072 233.733 283.244 233.204 282.412 232.51C281.205 231.502 280.361 230.432 279.882 229.299C279.411 228.173 279.237 227.098 279.359 226.074C279.496 225.048 279.858 224.184 280.446 223.48L283.72 226.213C283.342 226.699 283.145 227.179 283.129 227.653C283.12 228.135 283.239 228.586 283.484 229.008C283.737 229.436 284.071 229.824 284.487 230.171C284.935 230.545 285.357 230.796 285.753 230.923C286.155 231.042 286.519 231.061 286.845 230.98C287.185 230.897 287.472 230.716 287.706 230.436Z" fill="black"/>
<path d="M254.195 148.061L257.781 151.055C256.728 152.17 255.533 152.943 254.196 153.374C252.867 153.812 251.478 153.859 250.027 153.516C248.584 153.18 247.147 152.415 245.716 151.22C244.596 150.285 243.753 149.256 243.186 148.131C242.625 146.998 242.333 145.804 242.308 144.549C242.292 143.301 242.551 142.024 243.084 140.719C243.617 139.414 244.418 138.121 245.486 136.842L246.497 135.63C247.566 134.351 248.698 133.336 249.895 132.584C251.107 131.832 252.332 131.355 253.571 131.155C254.819 130.961 256.05 131.039 257.264 131.388C258.479 131.738 259.634 132.369 260.73 133.284C262.185 134.499 263.192 135.788 263.751 137.15C264.318 138.519 264.49 139.897 264.268 141.285C264.053 142.68 263.508 144.016 262.632 145.293L259.033 142.289C259.581 141.552 259.938 140.839 260.105 140.151C260.279 139.455 260.226 138.78 259.945 138.125C259.679 137.468 259.146 136.806 258.346 136.139C257.747 135.638 257.129 135.313 256.495 135.163C255.86 135.013 255.2 135.039 254.516 135.241C253.832 135.443 253.123 135.829 252.39 136.398C251.672 136.965 250.926 137.713 250.152 138.64L249.121 139.876C248.366 140.779 247.77 141.632 247.332 142.433C246.9 143.226 246.628 143.975 246.514 144.681C246.414 145.385 246.488 146.044 246.736 146.658C246.998 147.27 247.449 147.843 248.089 148.377C248.84 149.005 249.56 149.402 250.248 149.57C250.936 149.737 251.605 149.691 252.255 149.433C252.913 149.182 253.559 148.724 254.195 148.061Z" fill="black"/>
<path d="M274.495 150.271L257.659 160.783L253.832 157.589L274.901 145.542L277.336 147.575L274.495 150.271ZM266.355 168.043L273.679 149.59L275.789 146.283L278.248 148.336L270.193 171.247L266.355 168.043ZM271.566 161.362L269.213 164.18L259.989 156.48L262.342 153.661L271.566 161.362Z" fill="black"/>
<path d="M277.46 165.712L277.68 165.448C279.089 163.761 280.543 162.376 282.043 161.295C283.551 160.22 285.031 159.406 286.483 158.854C287.949 158.3 289.317 157.97 290.587 157.863C291.857 157.756 292.962 157.838 293.904 158.108L293.041 160.482C292.305 160.437 291.47 160.527 290.536 160.752C289.609 160.968 288.609 161.354 287.534 161.91C286.475 162.463 285.357 163.226 284.179 164.197C283.009 165.161 281.813 166.374 280.591 167.837L280.331 168.149C279.109 169.612 278.126 171.01 277.38 172.342C276.642 173.665 276.091 174.902 275.729 176.051C275.368 177.215 275.16 178.277 275.106 179.236C275.052 180.195 275.109 181.036 275.278 181.761L273.136 182.985C272.702 182.107 272.424 181.034 272.302 179.765C272.174 178.505 272.251 177.104 272.534 175.562C272.818 174.036 273.354 172.434 274.143 170.758C274.946 169.081 276.052 167.399 277.46 165.712Z" fill="black"/>
<path d="M292.121 172.191L293.968 173.733C294.56 174.227 295.131 174.534 295.682 174.654C296.239 174.767 296.763 174.716 297.254 174.502C297.76 174.286 298.22 173.93 298.634 173.435C299.007 172.987 299.25 172.518 299.361 172.027C299.487 171.535 299.454 171.046 299.262 170.56C299.077 170.067 298.717 169.596 298.181 169.149C297.757 168.795 297.295 168.552 296.795 168.42C296.295 168.287 295.811 168.283 295.341 168.406C294.871 168.53 294.456 168.808 294.096 169.239L290.629 166.346C291.43 165.386 292.384 164.764 293.49 164.479C294.604 164.202 295.763 164.227 296.969 164.555C298.174 164.882 299.301 165.484 300.348 166.358C301.532 167.346 302.407 168.402 302.974 169.527C303.548 170.644 303.776 171.777 303.657 172.927C303.539 174.076 303.026 175.195 302.118 176.282C301.657 176.834 301.082 177.263 300.392 177.569C299.709 177.867 298.954 178.024 298.127 178.039C297.315 178.053 296.466 177.901 295.579 177.581C294.699 177.254 293.835 176.736 292.988 176.028L290.589 174.026L292.121 172.191ZM289.928 174.817L291.42 173.03L293.819 175.033C294.77 175.827 295.516 176.633 296.055 177.449C296.595 178.266 296.938 179.082 297.085 179.897C297.239 180.704 297.21 181.487 296.997 182.246C296.791 182.996 296.411 183.704 295.857 184.367C295.176 185.183 294.413 185.78 293.567 186.16C292.728 186.531 291.841 186.7 290.906 186.666C289.979 186.638 289.043 186.427 288.098 186.031C287.159 185.627 286.246 185.055 285.358 184.314C284.623 183.7 283.982 182.996 283.438 182.202C282.907 181.407 282.525 180.565 282.289 179.676C282.069 178.786 282.047 177.886 282.224 176.975C282.415 176.063 282.872 175.175 283.592 174.312L287.059 177.206C286.685 177.653 286.463 178.147 286.393 178.685C286.324 179.224 286.401 179.757 286.626 180.284C286.859 180.818 287.219 181.288 287.707 181.695C288.259 182.156 288.814 182.45 289.373 182.577C289.946 182.703 290.491 182.669 291.005 182.475C291.535 182.279 292.007 181.933 292.421 181.437C292.955 180.798 293.266 180.189 293.355 179.612C293.45 179.026 293.358 178.461 293.08 177.917C292.802 177.373 292.367 176.853 291.775 176.359L289.928 174.817Z" fill="black"/>
<path d="M306.156 189.22L305.936 189.484C304.574 191.115 303.135 192.465 301.619 193.533C300.11 194.593 298.61 195.398 297.122 195.946C295.634 196.509 294.237 196.841 292.929 196.944C291.63 197.054 290.498 196.964 289.533 196.673L290.343 194.337C291.079 194.382 291.91 194.289 292.836 194.057C293.77 193.833 294.777 193.439 295.858 192.876C296.932 192.321 298.054 191.554 299.223 190.576C300.4 189.605 301.599 188.387 302.821 186.924L303.081 186.612C304.303 185.149 305.287 183.751 306.032 182.42C306.777 181.088 307.323 179.841 307.67 178.678C308.031 177.514 308.235 176.456 308.283 175.506C308.345 174.553 308.296 173.726 308.137 173.023L310.3 171.796C310.758 172.694 311.046 173.796 311.164 175.102C311.296 176.406 311.221 177.837 310.94 179.393C310.666 180.956 310.14 182.579 309.359 184.261C308.586 185.936 307.518 187.588 306.156 189.22Z" fill="black"/>
</g>
</g>
</g>
</g>
</svg>
